<svg id="Layer_1" enable-background="new 0 0 128 128" viewBox="0 0 128 128" xmlns="http://www.w3.org/2000/svg"><g><g><path d="m121.5 69c0-.4 0-.9 0-1.3v-14.6l-17.7-18h-20.1l-57 20.6-20.2 16.6v16.4c0 9 6.5 15.1 15.5 15.1 12.6 0 12-4.4 25.3-7.4 11.9-2.6 27.6 4.3 41 1.8 22.6-4.3 32.6-16.5 33.1-28.7v-.5z" fill="#c08e5e"/><path d="m38.2 40c20.6-11.6 51.9-22.1 69.3-11.2 21.6 13.5 20.4 45.3-19.2 52.9-13.5 2.6-29.2-4.4-41-1.8-13.3 2.9-12.7 7.4-25.3 7.4-17.8 0-28.8-24.5 16.2-47.3z" fill="#e2a76f"/><path d="m22 81.3c-4.7 0-8.4-2.5-9.3-6.1-1.5-6.4 4.9-18 28.2-29.8l.2-.1c16.7-9.4 34.6-15 47.9-15 6.3 0 11.4 1.2 15.3 3.7 8.1 5 12.4 13.4 10.9 21.3-1.9 10.1-12.1 17.6-28 20.6-1.8.3-3.7.5-5.5.5-4.6-.1-9.2-.6-13.8-1.4-4.8-.9-9.6-1.4-14.5-1.5-2.5 0-5 .2-7.4.7-4.5 1-8.9 2.5-13 4.6-3.3 1.5-5.3 2.5-11 2.5z" fill="#df6421"/><ellipse cx="90.4" cy="43.2" fill="#be551c" rx="5.5" ry="3.6"/></g></g><path d="m99.1 88.8c.3.9-.1 1.9-1 2.3-3.4 1.3-9.7 3-10.9 3-1 0-1.7-.8-1.7-1.8 0-.8.6-1.6 1.4-1.7 3.4-.6 6.7-1.6 10-2.8.8-.3 1.8.1 2.2 1zm-62.5-39.2c.9-.5 1.8-1 2.7-1.5s1.2-1.5.7-2.4-1.5-1.2-2.4-.7-1.9 1-2.8 1.5c-.8.5-1.1 1.5-.7 2.4.5.6 1.3 1.3 2.5.7zm-5.6 3.5c.8-.5 1-1.6.5-2.4s-1.6-1-2.4-.5c-13.1 8.6-19.8 18.1-18.1 25.4 1.1 4.4 5.5 7.4 11 7.4 6.1 0 8.4-1.1 11.8-2.8 4-2.1 8.2-3.6 12.6-4.5 2.3-.5 4.6-.7 7-.7 4.8.1 9.5.6 14.2 1.5 4.6.8 9.4 1.3 14.1 1.5 2 0 3.9-.1 5.8-.5 16.7-3.2 27.4-11.2 29.4-22 1.6-8.6-3-17.7-11.7-23.1-4.2-2.6-9.6-3.9-16.2-3.9-13 0-29.8 5.1-46.2 13.9-.9.5-1.2 1.5-.7 2.4s1.5 1.2 2.4.7c15.6-8.5 32.3-13.6 44.5-13.6 5.9 0 10.8 1.1 14.4 3.4 7.5 4.7 11.4 12.3 10.1 19.5-1.7 9.3-11.4 16.3-26.6 19.2-1.7.3-3.5.5-5.2.4-4.5-.1-9.1-.6-13.5-1.4-4.9-.9-9.8-1.4-14.8-1.5-2.6 0-5.2.2-7.8.8-4.7 1-9.2 2.6-13.4 4.8-3.2 1.6-4.9 2.4-10.2 2.4-3.9 0-6.9-1.9-7.6-4.8-1-4.2 2.7-12.5 16.6-21.6zm59.4-4.6c-4.1 0-7.3-2.3-7.3-5.3s3.2-5.3 7.3-5.3 7.3 2.3 7.3 5.3-3.2 5.3-7.3 5.3zm0-3.5c2.3 0 3.8-1.1 3.8-1.8s-1.5-1.8-3.8-1.8-3.8 1.1-3.8 1.8 1.5 1.8 3.8 1.8zm32.8 24.8c-.4 14.9-13.6 26.2-34.5 30.1-7.1 1.4-14.7.2-22-.9-6.9-1.1-13.5-2.1-19-.9-3.9.8-7.7 2.2-11.2 4-3.7 1.8-6.9 3.4-14.4 3.4-10.2 0-17.3-6.7-17.3-16.3v-17c0-6.8 6.8-20.7 32.6-33.8 21.6-12.1 53.1-22.3 71-11.1 9.6 6 14.8 15 14.8 25.7zm-114.6 6.4c1.3 5.6 6.7 9.4 13.4 9.4s9.3-1.3 12.9-3c3.8-2 7.8-3.4 12-4.3 6.2-1.4 13-.3 20.3.8 7 1.1 14.3 2.2 20.8 1 17.7-3.4 29.2-12.1 31.4-24 1.8-9.6-3.2-19.7-12.8-25.7-4.9-3.1-11-4.4-17.7-4.4-15.9 0-35.2 7.4-49.9 15.6h-.1c-25.3 12.8-32.3 26.3-30.3 34.6zm111.3-11.6c-5.2 9.2-16.1 15.9-31.2 18.8-7.1 1.4-14.7.2-22-.9-6.9-1.1-13.5-2.1-19-.9-3.9.8-7.7 2.2-11.2 4-3.8 1.9-7 3.4-14.5 3.4-5.4.2-10.6-2.2-14-6.3l.3 6.5c0 7.6 5.5 12.8 13.8 12.8 6.7 0 9.3-1.3 12.9-3 3.8-2 7.8-3.4 12-4.3 6.2-1.4 13-.3 20.3.8 7 1.1 14.3 2.2 20.8 1 19.3-3.7 31.4-13.8 31.7-27.1-.1-.7.1-4.8.1-4.8z"/></svg>