<svg id="Capa_1" enable-background="new 0 0 498.103 498.103" height="512" viewBox="0 0 498.103 498.103" width="512" xmlns="http://www.w3.org/2000/svg"><g id="XMLID_310_"><path id="XMLID_353_" d="m439.064 396.781c-10.486 2.861-21.567-.553-29.099-8.084-6.624-6.624-47.874-47.874-54.52-54.519v.003c-.001.001-.001.002-.001.003l-14.796 5.264.482 22.35 33.207 45.21 54.903 42.899c6.175 4.543 13.696 6.422 20.985 5.637 15.056-1.622 26.718-14.28 26.718-29.824.002-20.013-18.955-34.102-37.879-28.939z" fill="#faecd8"/><path id="XMLID_352_" d="m312.767 376.351 54.772 54.772c7.534 7.535 10.943 18.617 8.083 29.099-5.159 18.909 8.918 37.881 28.939 37.881 16.458 0 29.479-13.008 29.985-28.999.253-7.994-2.671-16.069-8.772-22.17 1.07 1.07 2.227 2.062 3.466 2.974-10.716-10.716-77.373-77.372-88.11-88.11l-22.351.058z" fill="#ebd9c0"/><path id="XMLID_351_" d="m341.132 361.798c11.311-11.312 14.066-27.06 14.314-27.62 4.977-21.31 2.383-49.118-6.618-79.103l-147.132-176.392c-40.68-10.89-84.634-1.931-115.122 28.557l115.244 135.75z" fill="#915931"/><path id="XMLID_348_" d="m341.132 361.798c-7.182-7.182-247.38-247.38-254.558-254.558-47.011 47.01-43.25 126.455 7.714 177.419 3.912 3.912 7.921 7.72 12.014 11.421l48.282 36.571c17.946 11.335 36.403 20.776 54.51 28.101 55.683 22.524 108.052 25.031 132.038 1.046z" fill="#a86739"/><path id="XMLID_345_" d="m142.773 259.608c-6.642 6.643-47.977 47.978-54.635 54.636-7.535 7.535-18.617 10.943-29.098 8.084-18.925-5.164-37.881 8.928-37.881 28.939 0 16.446 12.996 29.478 29 29.985 7.993.253 16.068-2.67 22.17-8.772l48.143-36.77 36.77-48.143 1.679-23.813z" fill="#faecd8"/><path id="XMLID_344_" d="m157.24 287.568c-10.266 10.266-74.579 74.58-84.913 84.913-6.102 6.101-9.025 14.176-8.772 22.169.507 15.984 13.52 29 29.985 29 20.011 0 34.104-18.954 28.94-37.881-2.861-10.486.552-21.567 8.083-29.098 6.615-6.615 48.034-48.034 54.692-54.693l-4.03-16.249z" fill="#ebd9c0"/><path id="XMLID_341_" d="m157.24 287.568 138.599-111.888 115.96-142.67c-47.011-47.01-126.456-43.25-177.42 7.714-80.74 80.739-118.669 205.314-77.139 246.844z" fill="#d88a55"/><path id="XMLID_313_" d="m411.799 33.009c-7.183 7.182-247.38 247.38-254.559 254.558 41.263 41.263 166.356 3.35 246.845-77.139 51.015-51.015 54.675-130.458 7.714-177.419z" fill="#c27742"/></g></svg>