<svg height="512" viewBox="0 0 60 55" width="512" xmlns="http://www.w3.org/2000/svg"><g id="Page-1" fill="none" fill-rule="evenodd"><g id="027---Frogs-Legs" fill="rgb(0,0,0)" fill-rule="nonzero"><path id="Shape" d="m51.471 7.488c-1.291-1.126-2.509-2.188-3.471-3.182-5.239-5.437-14.034-4.02-16.6-3.457-.4422515.0986976-.8938722.14932471-1.347.151h-.106c-.4530642-.00182592-.9046332-.052112-1.347-.15-2.567-.565-11.36-1.983-16.6 3.456-.958.993-2.176 2.056-3.467 3.182-4.2 3.666-8.961 7.821-8.5 12.683.3 3.134 2.706 5.977 7.361 8.693 3.48 2.029 6.926 3.931 10.245 5.644-3.0279125 4.28492-6.7975591 7.993946-11.131 10.952-.49011555.3283344-.74525288.911171-.654 1.494.08841965.5734839.50677269 1.0408473 1.067 1.192.48287642.0943316.90725353.3795332 1.177.791.18547847.6330198.12105241 1.3130726-.18 1.9-.23616589.597719-.06895063 1.2794119.417 1.7.47612437.4186114 1.16758825.4831965 1.713.16 1.1-.642 1.8-.732 2.093-.6.248.11.378.5.443.81.1453768.7025345.7635827 1.2067834 1.481 1.208.4403503.0001148.8572962-.198256 1.135-.54.68-.83 1.222-1.126 1.5-1.127.026 0 .227 0 .491.32.3505354.4236282.9038609.6228867 1.444.52.5333812-.1030194.9681362-.4887016 1.134-1.006 1.450729-4.5713064 3.3524178-8.9870298 5.677-13.182.252-.4446667.514-.8816667.786-1.311.264-.418.537-.828.807-1.225 1.108378-1.4375951 1.5497555-3.2802464 1.213-5.064-.774-3.545-4.78-5.934-7.7-7.677-.8081794-.4344703-1.5747343-.942271-2.29-1.517-.757-.785-.663-1.239-.632-1.389.108-.519.791-1.6 4.153-2.994.878-.364 1.66-.7 2.365-.995 3-1.274 4.512-1.914 5.846-1.928 1.353.021 2.858.658 5.856 1.925.708.3 1.494.633 2.378 1 3.361 1.394 4.044 2.474 4.152 2.993.031.15.125.6-.632 1.389-.7152657.574729-1.4818206 1.0825297-2.29 1.517-2.925 1.743-6.931 4.132-7.705 7.677-.33771 1.7834759.1029708 3.6262568 1.211 5.064.272.4.545.81.809 1.228 2.7043175 4.5690802 4.8732814 9.4344851 6.464 14.5.1658667.5150106.5995511.8984628 1.131 1 .5398672.1031676 1.0930404-.096174 1.443-.52.1109052-.1728934.2902021-.2903638.493-.323.279 0 .82.3 1.5 1.126.3577022.4421116.9390716.6370712 1.491.5.569251-.1365606 1.0079109-.5904273 1.125-1.164.065-.309.2-.7.443-.811.293-.128.992-.038 2.092.6.54447.3238479 1.2355135.2604753 1.712-.157.4894345-.4231822.6568434-1.1100803.417-1.711-.3007524-.5871187-.3641289-1.2674313-.177-1.9.268668-.4109937.6920808-.6959138 1.174-.79.5603927-.1521338.9785795-.6200954 1.067-1.194.0927056-.5846951-.1624962-1.1700202-.654-1.5-4.3285686-2.9540871-8.0966859-6.6551583-11.128-10.93 3.305-1.717 6.751-3.619 10.243-5.655 4.655-2.716 7.063-5.559 7.361-8.693.462-4.862-4.299-9.017-8.499-12.683zm6.508 12.494c-.23 2.418-2.379 4.818-6.379 7.154-3.464 2.02-6.881 3.906-10.158 5.608-.5130587.264394-.8861337.7384202-1.0225505 1.2992445-.1364167.5608243-.0227482 1.1532475.3115505 1.6237555 2.9887228 4.2200507 6.6624355 7.9103253 10.869 10.918-.6412065.3150319-1.1637305.828438-1.49 1.464-.3451016.7450033-.4282686 1.5847783-.236 2.383-.8791498-.4421615-1.9020816-.5008009-2.826-.162-.5944618.2740147-1.0636938.762173-1.314 1.367-.6233897-.7008674-1.4979461-1.1277257-2.434-1.188-.5072106.0018114-1.0009423.1634727-1.411.462-1.6071476-4.9525344-3.762513-9.7100356-6.426-14.184-.277-.44-.564-.871-.854-1.294-.7904841-.9848265-1.1203943-2.2614988-.906-3.506.59-2.7 4.165-4.83 6.777-6.386.9664944-.5123371 1.872204-1.1319095 2.7-1.847.9083523-.7909124 1.3433133-1.995187 1.15-3.184-.345-1.655-2.043-3.064-5.345-4.434-.878-.364-1.661-.7-2.364-.993-3.237-1.369-4.861-2.056-6.63-2.083-1.756.019-3.386.71-6.633 2.087-.7.3-1.477.627-2.349.989-3.3 1.37-5 2.779-5.345 4.434-.1933133 1.188813.2416477 2.3930876 1.15 3.184.827796.7150905 1.7335056 1.3346629 2.7 1.847 2.612 1.556 6.187 3.688 6.777 6.386.2143393 1.2457479-.1163151 2.5235741-.908 3.509-.288.42-.575.851-.85 1.288-.288.4553333-.565.9173333-.831 1.386-2.2685775 4.0793157-4.143701 8.3653124-5.6 12.8-.4099949-.29865-.9037675-.4603247-1.411-.462h.009c-.9344976.0618336-1.8072454.4885103-2.43 1.188-.2503062-.604827-.7195382-1.0929853-1.314-1.367-.9241789-.3393332-1.9476342-.2806845-2.827.162.193058-.7980766.1102282-1.6380066-.235-2.383-.32759282-.6357288-.85154297-1.1488072-1.494-1.463 4.2061805-3.007459 7.8792677-6.6977844 10.867-10.918.3342744-.4703459.447931-1.0626285.3115048-1.6232999-.1364262-.5606715-.5095007-1.0345195-1.0225048-1.2987001-3.288-1.709-6.7-3.6-10.158-5.609-3.998-2.336-6.147-4.736-6.377-7.154-.364-3.841 3.986-7.637 7.824-10.982 1.323-1.155 2.574-2.246 3.591-3.3 4.524-4.7 12.424-3.4 14.74-2.9.5814064.13026103 1.1751861.1973169 1.771.2h.106c.596141-.00273585 1.1902465-.06979064 1.772-.2 2.315-.5 10.215-1.8 14.739 2.894 1.017 1.055 2.268 2.146 3.591 3.3 3.838 3.351 8.188 7.147 7.824 10.988z"/><path id="Shape" d="m11.156 10.513-.374.324c-.34.292-.692.6-1.031.944-.25008591.2558022-.344706.6255924-.24821778.9700742.09648821.3444818.36942587.6113203.71599998.7.3465741.0886797.7141319-.014272.9642178-.2700742.3-.3.606-.569.9-.824l.4-.347c.2808025-.2334351.4120396-.6013685.3423548-.9598179-.0696849-.3584495-.3292107-.650416-.6770182-.7616454-.3478074-.1112294-.7285897-.0240344-.9933366.2274633z"/><path id="Shape" d="m10.413 23.676c-3.14-1.827-4.337-3.336-4.408-4.07-.045-.48.246-1.655 2.706-4.143.37737417-.3944261.36871381-1.0186072-.0194581-1.4024115-.38817192-.3838043-1.0124111-.3854015-1.4025419-.0035885-2.378 2.4-3.418 4.227-3.274 5.74.209 2.162 3.047 4.243 5.392 5.607.1515421.0891446.3241826.1361028.5.136.4512082-.0015708.8454737-.305108.9623741-.7409125.1169003-.4358046-.0725251-.8959112-.4623741-1.1230875z"/></g></g></svg>