<svg id="Capa_1" enable-background="new 0 0 512 512" height="512" viewBox="0 0 512 512" width="512" xmlns="http://www.w3.org/2000/svg"><g><path d="m60.709 315.995c.395-1.669.61-3.408.61-5.198 0-12.421-10.069-22.49-22.49-22.49s-22.49 10.069-22.49 22.49c0 1.79.215 3.529.61 5.198z" fill="#fe860a"/><path d="m170.048 315.995c2.532-19.97-5.233-42.658-22.574-59.999-27.083-27.083-67.223-30.853-89.656-8.421-17.072 17.072-18.952 44.396-6.946 68.419h119.176z" fill="#fff3de"/><path d="m470.596 271.65-47.749-47.749c-1.171-1.172-3.071-1.172-4.243 0l-36.112 36.112c14.542 10.539 24.009 27.65 24.009 46.983 0 3.061-.241 6.066-.698 8.999h24.689l40.103-40.103c1.173-1.171 1.173-3.071.001-4.242z" fill="#017b4e"/><path d="m402.375 285.513 40.637-40.637c.139-.139.29-.259.447-.365l-20.611-20.61c-1.171-1.172-3.071-1.172-4.243 0l-36.112 36.112c8.831 6.4 15.78 15.224 19.882 25.5z" fill="#026841"/><g><path d="m504.5 116.078v20.374h-376.491c-6.903 0-12.5-5.596-12.5-12.5 0-6.903 5.596-12.5 12.5-12.5h371.866c2.554.001 4.625 2.071 4.625 4.626z" fill="#fe9738"/></g><g><g fill="#fed2a4"><path d="m179.465 136.452v-34.451h-20c-2.761 0-5 2.238-5 5v29.451z"/><path d="m170.054 315.995h9.411v-154.544h-24.999v102.47c12.404 15.994 17.75 35.024 15.588 52.074z"/></g><g fill="#ffe5c2"><path d="m179.465 102.001h24.999v34.451h-24.999z"/><path d="m179.465 161.451h24.999v154.544h-24.999z"/></g><g fill="#fed2a4"><path d="m204.464 102.001h24.999v34.451h-24.999z"/><path d="m204.464 161.451h24.999v154.544h-24.999z"/></g><g fill="#ffe5c2"><path d="m254.463 136.452v-29.451c0-2.761-2.239-5-5-5h-20v34.451z"/><path d="m242.994 270.985c3.518-3.518 7.377-6.488 11.469-8.914v-100.62h-24.999v130.813c2.803-7.765 7.306-15.055 13.53-21.279z"/></g></g><g><path d="m341.85 315.995c1.11-16.146-4.491-32.667-16.834-45.01-22.65-22.65-59.373-22.65-82.023 0-12.343 12.343-17.943 28.864-16.834 45.01z" fill="#fdb97e"/><path d="m257.159 315.995c-1.109-16.146 4.491-32.667 16.834-45.01 7.343-7.343 16.169-12.29 25.512-14.872-19.474-5.382-41.204-.435-56.511 14.872-12.343 12.343-17.943 28.864-16.834 45.01z" fill="#fea95c"/></g><g><path d="m405.804 315.995c.457-2.933.698-5.938.698-8.999 0-32.032-25.967-57.999-57.999-57.999s-57.999 25.967-57.999 57.999c0 3.061.241 6.066.698 8.999z" fill="#fdb97e"/><path d="m321.71 315.995c-.457-2.934-.706-5.937-.706-8.999 0-26.752 18.118-49.261 42.749-55.958-4.861-1.322-9.97-2.04-15.25-2.04-32.032 0-57.999 25.967-57.999 57.999 0 3.061.241 6.066.698 8.999h30.508z" fill="#fea95c"/></g><g><path d="m170.048 315.995c2.532-19.97-5.233-42.658-22.574-59.999-27.083-27.083-67.223-30.853-89.656-8.421-17.072 17.072-18.952 44.396-6.946 68.419h119.176z" fill="#fff3de"/><path d="m88.497 315.995c-18.398-26.098-18.776-59.144.795-78.715 1.576-1.577 3.249-3.009 4.99-4.328-13.803.154-26.783 4.943-36.463 14.624-17.072 17.072-18.952 44.396-6.946 68.419z" fill="#ffe5c2"/><path d="m139.035 315.995c6.184-11.653 4.372-26.437-5.442-36.251-12.041-12.041-31.564-12.041-43.606 0-9.814 9.814-11.627 24.598-5.442 36.251z" fill="#fe860a"/><path d="m104.929 315.995c-6.185-11.653-4.372-26.436 5.443-36.251 3.389-3.389 7.37-5.824 11.611-7.305-10.827-3.782-23.342-1.347-31.995 7.305-9.814 9.815-11.627 24.598-5.442 36.251z" fill="#fe7701"/></g><path d="m326.332 449.411h-184.441l-.396-.372v31.741c0 3.275 2.655 5.93 5.93 5.93h173.374c3.275 0 5.93-2.655 5.93-5.93v-31.741z" fill="#fea95c"/><g><path d="m202.994 480.779v-30.368h-61.499v30.368c0 3.275 2.655 5.93 5.93 5.93h61.499c-3.275 0-5.93-2.655-5.93-5.93z" fill="#fe9738"/></g><g><path d="m8.967 325.803 132.528 124.608h185.233l132.528-124.608c3.321-3.841.592-9.808-4.485-9.808h-441.318c-5.078 0-7.807 5.967-4.486 9.808z" fill="#fed402"/></g><g><path d="m74.951 315.995h-61.498c-5.078 0-7.807 5.967-4.485 9.808l132.528 124.608h61.499l-132.529-124.608c-3.321-3.841-.593-9.808 4.485-9.808z" fill="#fac600"/></g><g><path d="m504.5 136.452v20.374c0 2.554-2.071 4.625-4.625 4.625h-371.866c-6.903 0-12.5-5.596-12.5-12.5 0-6.903 5.596-12.5 12.5-12.5h376.491z" fill="#fea95c"/></g><g><path d="m315.034 208.731-16.297 16.297c-1.294 1.294-3.392 1.294-4.685 0l-16.297-16.297c-1.294-1.294-1.294-3.392 0-4.685l16.297-16.297c1.294-1.294 3.392-1.294 4.685 0l16.297 16.297c1.294 1.293 1.294 3.391 0 4.685z" fill="#09a76d"/></g><g><path d="m279.761 47.239-16.297 16.297c-1.294 1.294-3.392 1.294-4.685 0l-16.297-16.297c-1.294-1.294-1.294-3.392 0-4.685l16.297-16.297c1.294-1.294 3.392-1.294 4.685 0l16.297 16.297c1.294 1.294 1.294 3.392 0 4.685z" fill="#09a76d"/></g><g><path d="m205.985 89.751-16.297 16.297c-1.294 1.294-3.392 1.294-4.685 0l-16.297-16.297c-1.294-1.294-1.294-3.392 0-4.685l16.297-16.297c1.294-1.294 3.392-1.294 4.685 0l16.297 16.297c1.294 1.294 1.294 3.391 0 4.685z" fill="#09a76d"/></g><g><path d="m91.93 187.929-16.297 16.297c-1.294 1.294-3.392 1.294-4.685 0l-16.298-16.297c-1.294-1.294-1.294-3.392 0-4.685l16.297-16.297c1.294-1.294 3.392-1.294 4.685 0l16.297 16.297c1.295 1.293 1.295 3.391.001 4.685z" fill="#09a76d"/></g><g><path d="m416.907 365.622h-365.59l27.169 25.545h311.252z" fill="#fea95c"/></g><g><path d="m112.815 365.622h-61.498l27.169 25.545h61.499z" fill="#fe9738"/></g><g><path d="m296.395 179.278c-2.89 0-5.605 1.125-7.646 3.167l-16.297 16.297c-2.042 2.042-3.167 4.758-3.167 7.646s1.125 5.603 3.167 7.646l16.297 16.297c2.042 2.043 4.758 3.168 7.647 3.168 2.888 0 5.603-1.125 7.646-3.167l16.296-16.297c4.216-4.216 4.216-11.076 0-15.292l-16.296-16.297c-2.044-2.043-4.76-3.168-7.647-3.168zm0 37.487-10.377-10.377 10.377-10.376 10.376 10.376z"/><path d="m253.475 68.84c2.108 2.108 4.878 3.162 7.646 3.162s5.538-1.054 7.646-3.162l16.296-16.296.001-.001c2.042-2.042 3.167-4.757 3.167-7.646s-1.125-5.605-3.167-7.646l-16.297-16.298c-4.216-4.215-11.075-4.216-15.293 0l-16.295 16.297c-2.043 2.042-3.168 4.758-3.168 7.647s1.125 5.604 3.167 7.646zm7.646-34.32 10.377 10.376-10.377 10.377-10.376-10.377z"/><path d="m65.642 209.527c2.043 2.043 4.759 3.169 7.648 3.169s5.604-1.125 7.645-3.167l16.297-16.297c4.216-4.216 4.216-11.076 0-15.292l-16.296-16.297c-2.042-2.043-4.758-3.168-7.646-3.168-2.89 0-5.605 1.125-7.646 3.167l-16.297 16.298c-2.042 2.042-3.167 4.758-3.167 7.646s1.125 5.603 3.167 7.646zm7.648-34.317 10.377 10.376-10.377 10.376-10.376-10.376z"/><path d="m499.875 103.953h-70.873c-4.143 0-7.5 3.358-7.5 7.5s3.357 7.5 7.5 7.5h67.998v10h-235.037v-10h132.04c4.142 0 7.5-3.358 7.5-7.5s-3.357-7.5-7.5-7.5h-132.432c-1.366-5.421-6.269-9.451-12.108-9.451h-37.673c1.718-1.969 2.665-4.455 2.665-7.093 0-2.888-1.125-5.603-3.167-7.646l-16.298-16.299c-4.216-4.213-11.074-4.215-15.292.001l-16.299 16.3c-4.033 4.037-4.193 10.493-.498 14.736h-3.436c-5.839 0-10.742 4.03-12.108 9.451h-19.348c-11.028 0-20 8.972-20 20 0 4.729 1.658 9.072 4.412 12.5-2.754 3.427-4.412 7.771-4.412 12.5 0 11.028 8.971 20 20 20h18.957v76.412c-13.282-11.19-29.133-18.089-45.361-19.613-19.203-1.806-36.631 4.065-49.088 16.522-10.165 10.164-15.938 23.644-16.741 38.69-14.613 1.485-26.157 13.504-26.897 28.321-3.335 1.19-6.091 3.672-7.638 7.055-2.213 4.838-1.427 10.344 2.053 14.369.169.196.348.383.536.56l130.166 122.387v27.125c0 7.405 6.024 13.429 13.429 13.429h173.375c7.405 0 13.429-6.024 13.429-13.429v-27.125l130.166-122.387c.188-.177.367-.364.536-.56 3.479-4.025 4.266-9.531 2.053-14.369s-6.893-7.843-12.213-7.843h-6.17l27.302-27.302c4.09-4.094 4.09-10.753-.002-14.847l-47.749-47.748c-1.983-1.983-4.62-3.076-7.425-3.076-2.807 0-5.443 1.093-7.425 3.076l-31.835 31.834c-9.69-5.669-20.949-8.935-32.964-8.935-13.564 0-26.178 4.146-36.643 11.235-15.687-7.356-33.706-8.152-49.898-2.396v-81.386h237.912c6.685 0 12.125-5.439 12.125-12.125v-20.374-20.374c.001-6.686-5.438-12.125-12.124-12.125zm-262.912 5.548h10v19.451h-10zm-24.999 0h10v19.451h-10zm-24.62-32.469 10.377 10.377-10.377 10.376-10.377-10.376zm9.62 32.469v19.451h-10v-14.457c.127.004.253.018.38.018 2.768 0 5.538-1.054 7.646-3.162l1.851-1.851h.123zm-34.999 0h10v19.451h-10zm-33.956 9.451h18.957v10h-18.957c-2.757 0-5-2.243-5-5s2.243-5 5-5zm43.956 160.275c-2.54-6.141-5.877-12.13-10-17.792v-92.484h10zm-108.842-26.348c8.116-8.116 19.261-12.445 31.793-12.445 1.736 0 3.5.083 5.285.251 15.199 1.427 30.104 8.748 41.97 20.615 13.736 13.736 20.853 31.149 20.852 47.196h-13.563c2.192-11.981-1.319-24.809-10.563-34.054 0 0 0 0-.001 0-7.24-7.24-16.867-11.228-27.106-11.228s-19.866 3.988-27.105 11.228c-7.241 7.24-11.228 16.866-11.228 27.106 0 2.357.221 4.679.635 6.948h-18.417c-2.524-6-4.155-12.239-4.747-18.537-1.378-14.67 2.953-27.839 12.195-37.08zm26.403 55.616c-.692-2.222-1.07-4.554-1.07-6.948 0-6.233 2.427-12.093 6.835-16.5 4.406-4.407 10.266-6.834 16.499-6.834s12.092 2.427 16.5 6.834c6.335 6.336 8.251 15.434 5.759 23.448zm-52.932-12.502c.666 4.221 1.694 8.4 3.063 12.502h-15.622c1-6.443 6.106-11.53 12.559-12.502zm287.162 146.918h-43.751c-4.143 0-7.5 3.358-7.5 7.5s3.357 7.5 7.5 7.5h39.224v21.298h-170.234v-21.298h96.011c4.143 0 7.5-3.358 7.5-7.5s-3.357-7.5-7.5-7.5h-100.539l-47.057-44.244h273.402zm63.01-59.244h-305.308l-11.215-10.546h327.739zm27.169-25.545h-359.646l-36.828-34.627h433.302zm-226.97-49.627v-139.544h10v139.544zm233.762-76.108 41.385 41.385-34.724 34.724h-13.413c.012-.499.028-.997.028-1.499 0-18.664-7.86-35.516-20.427-47.458zm-21.724 74.609c0 .503-.02 1-.035 1.499h-14.012c.021-.499.047-.995.047-1.499 0-4.142-3.357-7.5-7.5-7.5-4.142 0-7.5 3.358-7.5 7.5 0 .505-.024 1.003-.059 1.499h-42.88c-.035-.496-.059-.994-.059-1.499 0-11.855 9.644-21.5 21.5-21.5 4.143 0 7.5-3.358 7.5-7.5s-3.357-7.5-7.5-7.5c-20.125 0-36.499 16.374-36.499 36.499 0 .504.027 1 .047 1.499h-14.013c-.015-.499-.035-.996-.035-1.499 0-27.845 22.654-50.499 50.499-50.499s50.499 22.655 50.499 50.5zm-114.998-45.475c5.15 0 10.293.804 15.246 2.369-10.102 11.529-16.246 26.609-16.246 43.106 0 .502.015 1 .027 1.499h-20.224c.701-4.287 2.695-8.402 5.995-11.701 2.929-2.929 2.929-7.677 0-10.606-2.93-2.929-7.678-2.929-10.607 0-6.226 6.226-9.712 14.16-10.488 22.308h-14.068c.828-12.169 5.95-23.5 14.658-32.207 9.845-9.845 22.776-14.768 35.707-14.768zm-46.313 4.161c-.25.25-.483.512-.729.765v-42.449c0-4.142-3.357-7.5-7.5-7.5s-7.5 3.358-7.5 7.5v66.952c-1.898 5.613-3.044 11.5-3.36 17.545h-6.64v-139.544h10v20.048c0 4.142 3.357 7.5 7.5 7.5s7.5-3.358 7.5-7.5v-20.048h10v89.031c-3.264 2.241-6.373 4.801-9.271 7.7zm259.308-111.73h-368.991c-2.757 0-5-2.243-5-5s2.243-5 5-5h368.991z"/></g></g></svg>