<svg id="Layer_5" enable-background="new 0 0 64 64" height="512" viewBox="0 0 64 64" width="512" xmlns="http://www.w3.org/2000/svg"><path d="m5.77 7.07 14.18 26.93c-1.46 0-2.87.22-4.2.62v-.01l-13.52-25.68c-.25-.47-.3-1.01-.14-1.52s.5-.93.98-1.18c.28-.15.6-.23.93-.23.74 0 1.42.41 1.77 1.07z" fill="#cf9e76"/><path d="m13.77 3.07 16.34 31.05c-1.39.17-2.72.54-3.96 1.07l-15.92-30.26c-.25-.47-.3-1.01-.14-1.52s.51-.93.98-1.18c.28-.15.61-.23.93-.23.75 0 1.42.41 1.77 1.07z" fill="#cf9e76"/><path d="m34.84 49.96c1.4-.02 2.77-.07 4.11-.15 1.39-.07 2.74-.17 4.04-.3 1.39-.12 2.73-.27 4.01-.45 1.63-.22 3.16-.47 4.57-.76 2.24-.44 4.19-.97 5.77-1.56 2.95-1.07 4.66-2.36 4.66-3.74 0 10.49-8.51 19-19 19h-22c-10.49 0-19-8.51-19-19 0 1.15 1.18 2.23 3.27 3.18 1.05.48 2.34.93 3.83 1.34 1.18.33 2.49.63 3.92.9 1.25.24 2.57.45 3.98.64 1.28.18 2.62.33 4.01.45v.01c1.3.12 2.65.22 4.04.29 1.34.08 2.71.13 4.11.15.94.03 1.88.04 2.84.04s1.9-.01 2.84-.04z" fill="#ccd1d9"/><path d="m9.38 38.4c-2.07 2.08-3.54 4.77-4.11 7.78-2.09-.95-3.27-2.03-3.27-3.18 0-1.76 2.79-3.37 7.38-4.6z" fill="#e6e9ed"/><path d="m57.42 39.28c2.9 1.08 4.58 2.35 4.58 3.72 0 1.38-1.71 2.67-4.66 3.74.43-1.17.66-2.42.66-3.74 0-1.3-.22-2.55-.64-3.7z" fill="#e6e9ed"/><path d="m57.36 39.3c.42 1.15.64 2.4.64 3.7 0 1.32-.23 2.57-.66 3.74-1.58.59-3.53 1.12-5.77 1.56 1.48-1.28 2.43-3.18 2.43-5.3 0-3.87-3.13-7-7-7-1.88 0-3.59.74-4.85 1.96-.99-.91-2.11-1.7-3.33-2.32 2.02-2.23 4.93-3.64 8.18-3.64 4.78 0 8.84 3.04 10.36 7.3z" fill="#ffeaa7"/><path d="m54 43c0 2.12-.95 4.02-2.43 5.3-1.41.29-2.94.54-4.57.76 0-.02 0-.04 0-.06 0-4.36-1.87-8.29-4.85-11.04 1.26-1.22 2.97-1.96 4.85-1.96 3.87 0 7 3.13 7 7z" fill="#fcd770"/><path d="m20 38c.57 0 1.12.04 1.67.13-1.22 1.17-2.25 2.53-3.02 4.04l-.06-.03c-3.01.62-5.31 3.16-5.57 6.28-1.43-.27-2.74-.57-3.92-.9.72-5.37 5.33-9.52 10.9-9.52z" fill="#ffeaa7"/><path d="m26.23 35.35c1.53.7 2.92 1.64 4.11 2.78-1.58.23-3.06.81-4.34 1.65-1.28-.84-2.75-1.42-4.33-1.65-.55-.09-1.1-.13-1.67-.13-5.57 0-10.18 4.15-10.9 9.52-1.49-.41-2.78-.86-3.83-1.34.57-3.01 2.04-5.7 4.11-7.78h.01c1.74-1.75 3.92-3.07 6.36-3.78 1.33-.4 2.74-.62 4.2-.62h.05c2.14 0 4.17.45 6 1.25.08.03.15.06.23.1z" fill="#fcd770"/><path d="m18.65 42.17c-1.06 2.05-1.65 4.37-1.65 6.83v.06c-1.41-.19-2.73-.4-3.98-.64.26-3.12 2.56-5.66 5.57-6.28z" fill="#fcd770"/><g fill="#ffeaa7"><path d="m26 39.78c-3.01 1.96-5 5.36-5 9.22 0 .17 0 .33.01.51-1.39-.12-2.73-.27-4.01-.45 0-.02 0-.04 0-.06 0-2.46.59-4.78 1.65-6.83.77-1.51 1.8-2.87 3.02-4.04 1.58.23 3.05.81 4.33 1.65z"/><path d="m42.15 37.96c2.98 2.75 4.85 6.68 4.85 11.04v.06c-1.28.18-2.62.33-4.01.45.01-.17.01-.34.01-.51 0-6.08-4.92-11-11-11-.56 0-1.12.04-1.66.13-1.19-1.14-2.58-2.08-4.11-2.78l-.08-.16c1.24-.53 2.57-.9 3.96-1.07.62-.08 1.25-.12 1.89-.12 2.46 0 4.78.59 6.82 1.64 1.22.62 2.34 1.41 3.33 2.32z"/><path d="m39 49c0 .27-.02.54-.05.81-1.34.08-2.71.13-4.11.15.1-.3.16-.62.16-.96 0-1.66-1.34-3-3-3s-3 1.34-3 3c0 .34.06.66.16.96-1.4-.02-2.77-.07-4.11-.15-.03-.26-.05-.54-.05-.81 0-3.87 3.13-7 7-7s7 3.13 7 7z"/></g><path d="m43 49c0 .17 0 .34-.01.51-1.3.13-2.65.23-4.04.3.03-.27.05-.54.05-.81 0-3.87-3.13-7-7-7s-7 3.13-7 7c0 .27.02.55.05.81-1.39-.07-2.74-.17-4.04-.29v-.01c-.01-.18-.01-.34-.01-.51 0-3.86 1.99-7.26 5-9.22 1.28-.84 2.76-1.42 4.34-1.65.54-.09 1.1-.13 1.66-.13 6.08 0 11 4.92 11 11z" fill="#fcd770"/><path d="m35 49c0 .34-.06.66-.16.96-.94.03-1.88.04-2.84.04s-1.9-.01-2.84-.04c-.1-.3-.16-.62-.16-.96 0-1.66 1.34-3 3-3s3 1.34 3 3z" fill="#fcd770"/><path d="m6.913 52.097c.64.198 1.3.383 1.975.555l.494-1.938c-.642-.164-1.269-.339-1.877-.527z"/><path d="m14.868 53.835c.669.103 1.338.194 2.007.278l.25-1.984c-.651-.082-1.305-.172-1.956-.271z"/><path d="m10.872 53.114c.658.142 1.324.271 1.997.392l.352-1.969c-.649-.116-1.294-.242-1.929-.378z"/><path d="m58.11 38.482c-1.789-4.383-6.091-7.482-11.11-7.482-3.147 0-6.157 1.255-8.392 3.446-2.017-.92-4.25-1.446-6.608-1.446-.441 0-.877.031-1.312.067l-16.033-30.463c-.519-.99-1.538-1.604-2.656-1.604-.483 0-.966.119-1.396.345-.708.373-1.231.999-1.468 1.765s-.162 1.578.211 2.287l14.823 28.164c-1.168-.314-2.377-.492-3.608-.535l-13.907-26.422c-.519-.99-1.538-1.604-2.656-1.604-.483 0-.966.119-1.395.345-.709.373-1.232.999-1.469 1.765s-.162 1.578.211 2.287l12.975 24.652c-2.04.776-3.892 1.956-5.445 3.456-5.222 1.433-7.875 3.279-7.875 5.495 0 11.028 8.972 20 20 20h22c11.028 0 20-8.972 20-20 0-1.737-1.656-3.255-4.89-4.518zm2.89 4.518c0 .653-.755 1.372-2.179 2.08.119-.683.179-1.378.179-2.08 0-.692-.072-1.367-.185-2.028 1.575.801 2.185 1.54 2.185 2.028zm-14-10c5.514 0 10 4.486 10 10 0 1.031-.164 2.039-.47 3.01-.737.25-1.561.492-2.467.725.602-1.139.937-2.415.937-3.735 0-4.411-3.589-8-8-8-1.776 0-3.46.582-4.847 1.644-.533-.439-1.104-.831-1.692-1.199 1.807-1.561 4.126-2.445 6.539-2.445zm.946 14.937c-.253-3.82-1.846-7.273-4.321-9.897.988-.675 2.153-1.04 3.375-1.04 3.309 0 6 2.691 6 6 0 1.68-.708 3.271-1.939 4.406-.974.19-2.012.368-3.115.531zm-1.989.267c-.645.08-1.305.155-1.986.224-.301-6.351-5.547-11.428-11.971-11.428-.457 0-.906.031-1.35.081-.674-.603-1.384-1.151-2.138-1.626 1.133-.291 2.296-.455 3.488-.455 7.432 0 13.513 5.825 13.957 13.204zm-15.955.78c.009-1.095.901-1.984 1.998-1.984s1.989.889 1.998 1.984c-.657.009-1.321.016-1.998.016s-1.341-.007-1.998-.016zm5.992-.046c-.034-2.177-1.809-3.938-3.994-3.938s-3.96 1.761-3.994 3.938c-.678-.02-1.345-.045-1.999-.076.074-3.244 2.731-5.862 5.993-5.862s5.919 2.618 5.993 5.863c-.654.03-1.321.055-1.999.075zm3.994-.183c-.131-4.297-3.66-7.755-7.988-7.755s-7.857 3.458-7.988 7.755c-.68-.043-1.341-.093-1.993-.146.209-5.332 4.599-9.609 9.981-9.609s9.772 4.277 9.98 9.609c-.651.053-1.312.103-1.992.146zm-22.015-7.47c-2.89.76-5.117 3.087-5.766 5.973-.691-.143-1.345-.293-1.963-.447.973-4.349 4.781-7.567 9.267-7.788-.577.717-1.1 1.467-1.538 2.262zm-1.146 2.638c-.428 1.285-.684 2.631-.774 4.014-.653-.097-1.279-.199-1.888-.305.365-1.549 1.338-2.876 2.662-3.709zm5.173-4.697c.751.153 1.486.368 2.182.689-2.42 2.085-3.992 5.115-4.154 8.513-.683-.069-1.343-.145-1.989-.225.189-3.396 1.573-6.539 3.961-8.977zm-10.955-35.523c.079-.255.252-.464.488-.588.481-.25 1.104-.052 1.353.42l15.702 29.835c-.664.144-1.316.343-1.958.573l-15.515-29.477c-.125-.237-.149-.508-.07-.763zm-7.931 4.763c-.125-.236-.149-.508-.07-.763s.252-.464.488-.588c.481-.251 1.104-.052 1.353.42l13.453 25.56c-.704.073-1.394.197-2.071.359zm16.886 26.534c2.962 0 5.793.936 8.16 2.641-.754.256-1.472.584-2.151.977-1.822-1.056-3.885-1.618-6.009-1.618-5.604 0-10.443 3.917-11.689 9.279-.696-.213-1.324-.431-1.888-.653 1.532-6.199 7.117-10.626 13.577-10.626zm-13.459 5.365c-.859 1.337-1.532 2.809-1.966 4.393-1.034-.602-1.575-1.204-1.575-1.758 0-.643.98-1.629 3.541-2.635zm36.459 20.635h-22c-8.82 0-16.164-6.383-17.693-14.768 4.89 3.14 16.843 4.768 28.693 4.768s23.803-1.628 28.693-4.768c-1.529 8.385-8.873 14.768-17.693 14.768z"/><path d="m55.395 49.506c-2.437 4.623-7.187 7.494-12.395 7.494h-1v2h1c5.952 0 11.38-3.28 14.164-8.561z"/><path d="m47.474 16.493c-3.33 2.552-7.474 5.729-7.474 13.507h2c0-6.792 3.401-9.398 6.69-11.92 2.611-2.001 5.31-4.069 5.31-8.08 0-2.757-2.243-5-5-5s-5 2.243-5 5 2.243 5 5 5v-2c-1.654 0-3-1.346-3-3s1.346-3 3-3 3 1.346 3 3c0 3.023-1.998 4.555-4.526 6.493z"/><path d="m36 26v2h2v-2c0-7.659-2.754-10.825-4.967-13.369-1.694-1.949-3.033-3.488-3.033-6.631 0-1.654 1.346-3 3-3s3 1.346 3 3-1.346 3-3 3v2c2.757 0 5-2.243 5-5s-2.243-5-5-5-5 2.243-5 5c0 3.891 1.712 5.859 3.524 7.943 2.201 2.53 4.476 5.146 4.476 12.057z"/><path d="m38 57h2v2h-2z"/></svg>