<svg id="Layer_1" enable-background="new 0 0 512.002 512.002" height="512" viewBox="0 0 512.002 512.002" width="512" xmlns="http://www.w3.org/2000/svg"><g><g clip-rule="evenodd" fill-rule="evenodd"><path d="m314.333 444.829h-208.666-.014v48.477c0 4.783 3.913 8.696 8.695 8.696h191.305c4.783 0 8.695-3.913 8.695-8.696v-48.477z" fill="#66e0f7"/><path d="m351.451 322.002c17.087 0 18.275-13.044 35.362-13.044 9.209 0 13.8 3.788 18.75 7.281l.004.003c2.904-13.564 4.433-27.637 4.433-42.068 0-9.565-7.826-17.391-17.391-17.391h-365.218c-9.565 0-17.391 7.826-17.391 17.391 0 14.431 1.528 28.504 4.432 42.068l.004-.002c4.95-3.493 9.541-7.281 18.75-7.281 17.088 0 18.275 13.044 35.363 13.044s18.275-13.044 35.363-13.044 18.275 13.044 35.363 13.044 18.275-13.044 35.362-13.044c17.088 0 18.275 13.044 35.363 13.044s18.275-13.044 35.363-13.044c17.087 0 18.275 13.044 35.363 13.044 17.087 0 18.275-13.044 35.362-13.044 17.088 0 18.275 13.043 35.363 13.043z" fill="#66e0f7"/><path d="m386.813 308.959c-17.087 0-18.275 13.044-35.362 13.044-17.088 0-18.275-13.044-35.363-13.044s-18.275 13.044-35.362 13.044c-17.088 0-18.275-13.044-35.363-13.044s-18.275 13.044-35.363 13.044-18.275-13.044-35.363-13.044c-17.087 0-18.275 13.044-35.362 13.044-17.088 0-18.275-13.044-35.363-13.044s-18.275 13.044-35.363 13.044-18.275-13.044-35.363-13.044c-9.208 0-13.799 3.788-18.75 7.281l-.004.002c11.629 54.319 45.319 100.456 91.234 128.587h208.667c45.915-28.131 79.604-74.268 91.234-128.586l-.004-.003c-4.95-3.493-9.541-7.281-18.75-7.281z" fill="#ff7d97"/><path d="m492.002 30.001-221.077 2.91c-.815 15.695-8.049 24.224-9.622 34.056l230.699 3.036c5.498.072 10-4.502 10-10v-20.002c0-5.498-4.5-10.072-10-10z" fill="#d1a184"/><g fill="#ffda8f"><path d="m231 30c0 12.068-10 21.212-10 40.667 0 4.935.416 9.021 1.078 12.508l43.825 3.254c-2.468-5.374-4.903-9.382-4.903-15.762 0-1.264.108-2.492.302-3.701 1.574-9.832 8.808-18.36 9.624-34.055.048-.944.074-1.913.074-2.911 0-11.046-8.954-20-20-20s-20 8.954-20 20z"/><path d="m190.998 30c0 19.625-10 28.505-10 40.667 0 3.776.854 6.722 2.062 9.611l39.017 2.897c-.661-3.487-1.077-7.573-1.077-12.508 0-19.456 10-28.6 9.999-40.667 0-11.046-8.954-20-20-20s-20.001 8.954-20.001 20z"/><path d="m150.553 34.495c-1.728 8.972-7.963 17.194-9.301 30.892-.164 1.674-.254 3.431-.254 5.28 0 2.354.096 4.513.266 6.508l41.796 3.103c-1.208-2.889-2.062-5.835-2.062-9.611 0-12.162 10-21.042 10-40.667 0-11.046-8.954-20-20-20s-20 8.954-20 20c0 1.537-.162 3.026-.445 4.495z"/></g><path d="m112.002 35.002c-5.5.072-10 4.499-10 10v10c0 5.5 4.502 9.927 10 10l29.25.385c1.338-13.697 7.573-21.92 9.3-30.892z" fill="#d1a184"/><path d="m141.265 77.175-29.263-2.172c-5.485-.407-10.354 3.611-10.833 9.09l-.871 9.962c-.479 5.479 3.619 10.282 9.09 10.833l41.5 4.182 40.084 4.039 39.315 3.962 39.837 4.014 217.383 21.905c5.471.551 10.354-3.613 10.833-9.09l1.743-19.926c.479-5.477-3.605-10.425-9.09-10.833l-225.091-16.713-43.825-3.254-39.017-2.897z" fill="#d1a184"/><path d="m140.998 233.336c0 11.239 2.156 18.077 4.466 23.447h43.359c-2.942-10.135-7.824-14.414-7.824-23.447 0-12.162 10-21.042 10-40.667 0-24.553-10-27.739-10-40.667 0-11.789 9.396-20.495 9.972-38.893l-40.084-4.039c.072.725.111 1.478.111 2.265 0 12.068-10 21.212-10 40.667 0 24.204 10 28.004 10 40.667 0 12.067-10 21.211-10 40.667z" fill="#ffda8f"/><path d="m225.466 256.783c-2.31-5.37-4.466-12.208-4.466-23.447 0-19.456 10-28.6 10-40.667 0-12.663-10-16.463-10-40.667 0-16.278 6.999-25.338 9.286-34.931l-39.315-3.962c-.576 18.397-9.972 27.103-9.972 38.893 0 12.928 10 16.114 10 40.667 0 19.625-10 28.505-10 40.667 0 9.033 4.883 13.312 7.824 23.447z" fill="#ffda8f"/><path d="m268.824 256.783c-2.941-10.135-7.824-14.414-7.824-23.447 0-12.162 10-21.042 10-40.667 0-24.553-10-27.739-10-40.667 0-9.944 6.684-17.695 9.122-30.917l-39.837-4.014c-2.286 9.593-9.286 18.653-9.286 34.931 0 24.204 10 28.004 10 40.667 0 12.068-10 21.212-10 40.667 0 11.239 2.156 18.077 4.466 23.447z" fill="#ffda8f"/></g><g><path d="m492.135 80.004c5.215 0 10.138-2.029 13.888-5.73 3.8-3.75 5.979-8.952 5.979-14.271v-20.002c0-5.32-2.179-10.521-5.979-14.271-3.813-3.763-8.857-5.815-14.153-5.728l-211.751 2.787c-3.238-13.07-15.062-22.789-29.119-22.789-7.678 0-14.689 2.903-20 7.664-5.313-4.761-12.323-7.664-20.001-7.664s-14.688 2.902-20 7.663c-5.312-4.761-12.323-7.663-20-7.663-14.703 0-26.96 10.635-29.506 24.613l-29.622.39c-10.956.144-19.869 9.115-19.869 19.999v10c0 5.74 2.494 10.932 6.444 14.593-4.012 3.299-6.756 8.11-7.239 13.625l-.872 9.964c-.947 10.841 7.15 20.555 18.05 21.653l31.186 3.142c-.547 1.532-1.213 3.167-1.941 4.95-2.954 7.228-6.631 16.222-6.631 29.071 0 16.275 4.128 25.069 7.142 31.491 1.931 4.113 2.858 6.222 2.858 9.176 0 3.352-1.487 6.99-3.37 11.597-2.953 7.228-6.63 16.222-6.63 29.071 0 4.861.365 9.278 1.096 13.447h-104.704c-15.103.001-27.391 12.289-27.391 27.392 0 36.591 9.557 72.622 27.638 104.197 16.591 28.974 40.035 53.74 68.014 71.945v42.991c0 10.309 8.387 18.695 18.696 18.695h191.304c10.31 0 18.696-8.387 18.696-18.695v-42.992c27.978-18.204 51.423-42.971 68.014-71.944 18.081-31.576 27.638-67.606 27.638-104.197 0-15.103-12.287-27.391-27.391-27.391h-116.799c-.674-1.563-1.345-2.99-1.964-4.292-1.974-4.146-2.847-6.107-2.847-9.155 0-3.382 1.483-6.99 3.36-11.558 2.959-7.197 6.641-16.154 6.641-29.11 0-16.488-4.135-25.172-7.154-31.512-1.974-4.146-2.847-6.106-2.847-9.155 0-3.383 1.482-6.992 3.36-11.561 1.072-2.609 2.218-5.42 3.257-8.55l208.887 21.048c.669.067 1.337.101 2.001.101 4.581 0 8.992-1.589 12.597-4.574 4.111-3.404 6.735-8.396 7.199-13.695l1.743-19.926c.464-5.299-1.253-10.671-4.711-14.737-3.47-4.082-8.3-6.546-13.6-6.94h-.001l-215.56-16.004 215.698 2.839c.089.001.177.002.266.002zm-.134-40.002-.035 19.999-216.805-2.853c1.658-4.088 3.41-8.751 4.559-14.352zm-241.001-20.002c5.514 0 10 4.486 10 10 0 9.005-2.496 15.077-5.139 21.506-2.39 5.815-4.861 11.829-4.861 19.161 0 1.656.123 3.197.331 4.651l-20.257-1.504c-.045-1.018-.073-2.06-.073-3.148 0-8.919 2.499-15.032 5.144-21.504 2.386-5.84 4.855-11.88 4.855-19.162 0-5.514 4.486-10 10-10zm-40.001 0c5.514 0 10 4.486 10 10v.009c-.003 3.349-1.489 6.985-3.37 11.587-2.953 7.228-6.63 16.222-6.63 29.071 0 .567.022 1.105.032 1.66l-20.025-1.487c-.001-.059-.008-.113-.008-.173 0-3.382 1.483-6.99 3.36-11.558 2.958-7.197 6.64-16.154 6.64-29.109.001-5.514 4.487-10 10.001-10zm-40 0c5.514 0 10 4.486 10 10 0 9.006-2.496 15.078-5.138 21.506-2.247 5.466-4.564 11.106-4.835 17.851l-19.938-1.48c.457-7.448 2.695-12.941 5.054-18.713 2.388-5.842 4.856-11.882 4.856-19.164.001-5.514 4.487-10 10.001-10zm-58.866 25.001 24.249-.319c-1.245 3.146-2.506 6.633-3.497 10.594l-20.753-.273c-.079-.001-.124-.032-.132-.027l-.021-9.908c.01-.01.051-.065.154-.067zm38.866 188.335c0-8.919 2.499-15.032 5.144-21.504 2.388-5.842 4.856-11.882 4.856-19.164 0-7.544-2.525-12.926-4.754-17.673-2.579-5.496-5.246-11.179-5.246-22.994 0-8.919 2.499-15.032 5.144-21.504 1.373-3.359 2.77-6.785 3.712-10.473l19.822 1.997c-.972 3.857-2.365 7.286-3.817 10.818-2.39 5.816-4.86 11.83-4.86 19.162 0 7.695 2.544 13.039 4.789 17.753 2.562 5.381 5.211 10.945 5.211 22.914 0 9.006-2.496 15.078-5.138 21.506-2.391 5.816-4.862 11.83-4.862 19.162 0 5.463 1.283 9.738 2.831 13.447h-21.296c-.813-3.084-1.536-7.383-1.536-13.447zm67.142-49.843c1.931 4.113 2.858 6.222 2.858 9.176 0 3.352-1.487 6.99-3.37 11.597-2.953 7.228-6.63 16.222-6.63 29.071 0 4.861.365 9.278 1.096 13.447h-16.287c-.674-1.562-1.344-2.988-1.964-4.29-1.974-4.147-2.847-6.109-2.847-9.158 0-3.382 1.483-6.99 3.36-11.558 2.958-7.197 6.64-16.154 6.64-29.109 0-16.487-4.135-25.171-7.153-31.512-1.974-4.145-2.847-6.106-2.847-9.155 0-3.383 1.482-6.992 3.36-11.56 1.863-4.534 4.033-9.825 5.372-16.399l16.764 1.689c-2.682 6.739-5.495 15.03-5.495 26.27.002 16.274 4.129 25.069 7.143 31.491zm93.288 251.336h-56.425c-5.522 0-10 4.477-10 10s4.478 10 10 10h49.345v37.173h-188.697v-37.173h49.352c5.522 0 10-4.477 10-10s-4.478-10-10-10h-56.434c-41.732-26.379-70.773-66.747-82.614-113.101 2.665-1.757 5.018-2.77 8.998-2.77 5.229 0 7.648 1.744 11.656 4.633 4.923 3.55 11.665 8.411 23.353 8.411s18.43-4.861 23.354-8.411c4.007-2.889 6.427-4.633 11.655-4.633 5.229 0 7.648 1.744 11.657 4.634 4.923 3.549 11.665 8.41 23.353 8.41s18.43-4.861 23.353-8.411c4.008-2.889 6.427-4.633 11.656-4.633s7.648 1.744 11.656 4.633c4.923 3.55 11.665 8.411 23.353 8.411s18.43-4.861 23.353-8.41c4.009-2.89 6.428-4.634 11.657-4.634s7.648 1.744 11.655 4.633c4.924 3.549 11.666 8.411 23.354 8.411 11.687 0 18.429-4.861 23.352-8.41 4.009-2.89 6.428-4.634 11.657-4.634s7.648 1.744 11.657 4.634c4.923 3.549 11.665 8.41 23.353 8.41 11.687 0 18.429-4.861 23.352-8.41 4.009-2.89 6.428-4.634 11.657-4.634 3.981 0 6.334 1.013 8.998 2.769-11.843 46.355-40.885 86.723-82.616 113.102zm88.571-160.655c0 9.19-.669 18.258-1.932 27.167-3.536-1.4-7.778-2.382-13.022-2.382-11.688 0-18.43 4.861-23.354 8.411-4.007 2.889-6.427 4.633-11.655 4.633-5.229 0-7.648-1.744-11.657-4.634-4.923-3.549-11.665-8.41-23.353-8.41s-18.43 4.861-23.354 8.411c-4.007 2.889-6.427 4.633-11.655 4.633-5.229 0-7.648-1.744-11.657-4.634-4.923-3.549-11.665-8.41-23.352-8.41-11.688 0-18.43 4.861-23.353 8.41-4.009 2.89-6.428 4.634-11.657 4.634s-7.648-1.744-11.656-4.633c-4.923-3.55-11.665-8.411-23.353-8.411s-18.43 4.861-23.353 8.411c-4.008 2.889-6.427 4.633-11.656 4.633s-7.648-1.744-11.657-4.634c-4.923-3.549-11.665-8.41-23.353-8.41-11.687 0-18.429 4.861-23.352 8.41-4.009 2.89-6.428 4.634-11.657 4.634s-7.648-1.744-11.656-4.633c-4.923-3.55-11.665-8.411-23.353-8.411-5.244 0-9.487.982-13.022 2.382-1.262-8.909-1.931-17.977-1.931-27.167 0-4.075 3.315-7.391 7.391-7.391h365.218c4.075 0 7.391 3.316 7.391 7.391zm-144.211-104.419c2.562 5.38 5.212 10.944 5.212 22.914 0 9.005-2.496 15.077-5.139 21.506-2.391 5.815-4.862 11.83-4.862 19.162 0 5.463 1.284 9.738 2.831 13.447h-21.295c-.812-3.085-1.536-7.384-1.536-13.447 0-8.919 2.499-15.032 5.144-21.504 2.388-5.842 4.856-11.882 4.856-19.164 0-7.544-2.525-12.926-4.754-17.673-2.579-5.496-5.246-11.18-5.246-22.995 0-8.92 2.498-15.033 5.144-21.505.361-.883.724-1.775 1.081-2.676l19.86 2.001c-.403 1.019-.815 2.023-1.224 3.018-2.391 5.816-4.861 11.831-4.861 19.162 0 7.696 2.543 13.039 4.789 17.754zm234.462-56.643c-.003 0-.005 0-.007 0zm-1.91 19.911-377.951-38.085c-.071-.007-.111-.039-.126-.039-.002 0-.003 0-.004 0l.845-9.872c.007-.01.034-.058.156-.053l378.858 28.127z"/><path d="m210.007 434.829h-.007c-5.522 0-9.996 4.477-9.996 10s4.481 10 10.004 10 10-4.477 10-10-4.478-10-10.001-10z"/></g></g></svg>