<svg id="Capa_1" enable-background="new 0 0 512 512" height="512" viewBox="0 0 512 512" width="512" xmlns="http://www.w3.org/2000/svg"><g><g><path d="m69.173 153.575c.797-4.2 2.633-7.365 5.556-8.992 7.74-4.31 20.623 3.503 31.234 17.978 1.886-6.638 5.834-12.781 11.8-17.365.179-.137.358-.275.537-.412 4.287-3.294 9.145-5.392 14.16-6.333-.25-7.018-1.771-15.054-4.642-23.276-3.327-9.528-7.919-17.732-12.87-23.674h-26.717c-2.185 7.453-1.831 18.269 1.303 29.933-19.196-7.961-37.184-7.655-41.448 1.185-3.959 8.207 5.205 21.095 21.087 30.956z" fill="#fb8801"/><g><path d="m111.958 171.925c4.236 7.609 7.111 15.266 8.559 22.138 4.655-1.74 9.645-2.425 14.594-2.008 4.337-3.148 9.806-4.761 15.549-4.097 7.87.911 14.276 5.849 17.451 12.508 4.317-3.087 9.735-4.664 15.423-4.006 9.609 1.112 17.044 8.22 19.058 17.15 4.418-6.937 12.518-11.147 21.237-10.138 9.114 1.055 16.294 7.498 18.727 15.779 4.26-7.507 12.722-12.14 21.836-11.085 4.858.562 9.141 2.68 12.47 5.77v-34.706c-1.559-.933-3.244-1.706-5.069-2.245-8.799-2.6-17.929.515-23.412 7.182-.979-8.576-6.949-16.153-15.748-18.753-8.417-2.487-17.118.274-22.659 6.351-.455-9.143-6.563-17.419-15.839-20.16-5.491-1.623-11.099-.997-15.881 1.306-1.988-7.105-7.454-13.067-15.051-15.312-5.544-1.638-11.209-.985-16.021 1.373-9.737-2.55-20.421-.69-28.883 5.813-.179.137-.358.275-.537.412-5.966 4.584-9.914 10.727-11.8 17.365 2.107 2.874 4.127 6.005 5.996 9.363z" fill="#fac600"/></g></g><g><path d="m480 61.167h-448v-25.334c0-2.761 2.239-5 5-5h438c2.761 0 5 2.239 5 5z" fill="#c57a44"/></g><g fill="#fef0ae"><path d="m316.528 61.167v-33.834c0-10.954-8.88-19.833-19.833-19.833s-19.833 8.88-19.833 19.833v33.833h39.666z"/><path d="m276.862 91.5v122.438c.647.6 1.27 1.224 1.841 1.894 3.894-8.488 12.911-13.909 22.689-12.777 6.277.727 11.614 4.026 15.137 8.704v-120.259z"/></g><g fill="#fedf74"><path d="m293 61.167v-33.834c0-8.077 4.836-15.014 11.764-18.106-2.467-1.101-5.193-1.727-8.069-1.727-10.954 0-19.833 8.88-19.833 19.833v33.833h16.138z"/><path d="m276.862 91.5v122.438c.647.6 1.27 1.224 1.841 1.894 2.737-5.967 8.011-10.406 14.298-12.131v-112.201z"/></g><g fill="#fef0ae"><path d="m356.195 61.167v-33.834c0-10.954-8.88-19.833-19.833-19.833-10.954 0-19.833 8.88-19.833 19.833v33.833h39.666z"/><path d="m316.528 91.5v120.259c.056.074.115.145.17.22 4.357-7.176 12.604-11.566 21.49-10.537 8.362.968 15.081 6.474 18.007 13.772v-123.714z"/></g><g fill="#fedf74"><path d="m333 61.167v-33.834c0-8.011 4.76-14.896 11.597-18.026-2.511-1.149-5.294-1.807-8.236-1.807-10.954 0-19.833 8.88-19.833 19.833v33.833h16.472z"/><path d="m316.528 91.5v120.259c.056.074.115.145.17.22 3.492-5.752 9.486-9.705 16.302-10.522v-109.957z"/></g><g fill="#fef0ae"><path d="m395.862 61.167v-33.834c0-10.954-8.88-19.833-19.833-19.833-10.954 0-19.833 8.88-19.833 19.833v33.833h39.666z"/><path d="m356.195 91.5v123.713c.972 2.425 1.527 5.047 1.583 7.767 1.577-.129 3.188-.112 4.82.077 13.386 1.549 22.982 13.657 21.433 27.044-.063.544-.155 1.077-.253 1.608h12.083v-160.209z"/></g><g fill="#fedf74"><path d="m372.333 61.167v-33.834c0-8.077 4.836-15.014 11.764-18.106-2.467-1.101-5.193-1.727-8.069-1.727-10.954 0-19.833 8.88-19.833 19.833v33.833h16.138z"/><path d="m356.195 91.5v123.713c.972 2.425 1.527 5.047 1.583 7.767 1.577-.129 3.188-.112 4.82.077 3.561.412 6.85 1.577 9.736 3.309v-134.866z"/></g><g fill="#fef0ae"><path d="m395.862 91.5h39.667v160.209h-39.667z"/><path d="m435.528 61.167v-33.834c0-10.954-8.88-19.833-19.833-19.833s-19.833 8.88-19.833 19.833v33.833h39.666z"/></g><g fill="#fedf74"><path d="m412 61.167v-33.834c0-8.077 4.836-15.014 11.764-18.106-2.467-1.101-5.193-1.727-8.069-1.727-10.954 0-19.833 8.88-19.833 19.833v33.833h16.138z"/><path d="m395.862 91.5h16.138v160.209h-16.138z"/></g><g><path d="m475 91.5h-438c-2.761 0-5-2.239-5-5v-25.333h448v25.333c0 2.761-2.239 5-5 5z" fill="#d88a55"/></g><g><path d="m107.193 203.226c.153-.166.305-.332.458-.498 3.659-3.98 8.086-6.878 12.867-8.665-1.448-6.871-4.323-14.529-8.559-22.138-11.284-20.266-27.952-32.508-37.23-27.342-8.363 4.657-7.862 21.87.584 40.064-20.276-4.556-37.946-1.174-40.633 8.266-2.908 10.213 12.821 23.641 35.13 29.992 10.467 2.98 20.517 3.868 28.544 2.921.011-8.037 2.889-16.13 8.839-22.6z" fill="#fe9901"/><path d="m102.365 209.989c-6.637-.02-14.146-1.071-21.889-3.276-17.235-4.907-30.532-14.036-34.354-22.644-6.061 1.633-10.244 4.635-11.443 8.844-2.908 10.213 12.821 23.641 35.13 29.992 10.467 2.98 20.517 3.868 28.544 2.921.009-5.426 1.326-10.876 4.012-15.837z" fill="#fb8801"/><g><path d="m109.558 250.917c.006.267.039.527.055.792h274.164c.097-.531.19-1.064.253-1.608 1.549-13.386-8.047-25.494-21.433-27.044-1.632-.189-3.243-.206-4.82-.077-.225-10.907-8.451-20.25-19.59-21.539-8.885-1.028-17.133 3.361-21.49 10.537-3.52-4.797-8.93-8.186-15.306-8.924-9.779-1.132-18.796 4.29-22.689 12.777-3.509-4.122-8.509-6.992-14.311-7.664-9.114-1.055-17.575 3.578-21.836 11.085-2.433-8.281-9.612-14.724-18.727-15.779-8.718-1.009-16.818 3.201-21.237 10.138-2.014-8.93-9.449-16.038-19.058-17.15-5.688-.658-11.106.918-15.423 4.006-3.175-6.659-9.582-11.598-17.451-12.508-5.743-.665-11.212.949-15.549 4.097-10.03-.845-20.237 2.818-27.461 10.672-.153.166-.305.332-.458.498-12.84 13.964-11.395 35.491 2.367 47.691z" fill="#fed402"/></g><g><path d="m109.558 250.917c.006.267.039.527.055.792h31.368c-2.294-3.418-3.667-7.476-3.771-11.792-13.763-12.2-15.207-33.727-2.366-47.691.054-.059.108-.118.162-.177-9.996-.811-20.158 2.851-27.356 10.678-.153.166-.305.332-.458.498-12.841 13.965-11.396 35.492 2.366 47.692z" fill="#fac600"/></g></g><g><g><path d="m476.988 262.132c.276-5.682-4.306-10.423-9.994-10.423h-401.839c-5.688 0-10.271 4.741-9.994 10.423 3.699 76.112 47.703 141.631 111.116 175.704v56.664c0 5.523 4.477 10 10 10h179.596c5.523 0 10-4.477 10-10v-56.665c63.413-34.072 107.416-99.592 111.115-175.703z" fill="#fb2b3a"/></g><path d="m116.417 315h-51.852c16.628 52.983 53.574 96.971 101.711 122.835h51.852c-48.137-25.864-85.083-69.852-101.711-122.835z" fill="#e41f2d"/><g><path d="m466.994 251.709h-401.839c-5.688 0-10.271 4.741-9.994 10.423.891 18.336 4.135 36.052 9.412 52.868h403.004c5.277-16.816 8.521-34.532 9.412-52.868.275-5.682-4.307-10.423-9.995-10.423z" fill="#fff"/></g><g><path d="m117.006 251.709h-51.851c-5.688 0-10.271 4.741-9.994 10.423.891 18.336 4.135 36.052 9.412 52.868h51.852c-5.277-16.816-8.521-34.532-9.412-52.868-.277-5.682 4.305-10.423 9.993-10.423z" fill="#eaf6ff"/></g><g><path d="m166.276 437.835v56.665c0 5.523 4.477 10 10 10h179.596c5.523 0 10-4.477 10-10v-56.665z" fill="#fff"/></g><g><path d="m204.404 494.5v-56.665h-38.128v56.665c0 5.523 4.477 10 10 10h38.128c-5.523 0-10-4.477-10-10z" fill="#eaf6ff"/></g><g><path d="m166.276 494.5c0 5.523 4.477 10 10 10h179.596c5.523 0 10-4.477 10-10v-16.665h-199.596z" fill="#fb2b3a"/></g><g><path d="m204.404 494.5v-16.665h-38.128v16.665c0 5.523 4.477 10 10 10h38.128c-5.523 0-10-4.477-10-10z" fill="#e41f2d"/></g></g><g><path d="m475 23.333h-32.267c-1.942-13.182-13.325-23.333-27.038-23.333-7.804 0-14.848 3.292-19.833 8.555-4.986-5.263-12.03-8.555-19.834-8.555s-14.848 3.292-19.833 8.555c-4.985-5.263-12.03-8.555-19.834-8.555-7.803 0-14.848 3.292-19.833 8.555-4.985-5.263-12.03-8.555-19.833-8.555-13.713 0-25.096 10.151-27.038 23.333h-232.657c-6.893 0-12.5 5.607-12.5 12.5v17.833 15 17.834c0 6.893 5.607 12.5 12.5 12.5h42.404c-.214 3.504-.112 7.275.345 11.276-18.387-4.608-33.374-1.373-38.417 9.083-2.074 4.299-4.032 13.345 6.153 25.634 3.589 4.331 8.285 8.502 13.714 12.288-.218 5.367.631 11.481 2.562 18.05-18.906-1.391-33.117 4.363-36.295 15.528-1.307 4.59-1.687 13.838 10.452 24.202 7.437 6.35 18.034 11.697 29.837 15.058 8.919 2.539 16.906 3.641 23.854 3.659.704 3.652 1.89 7.153 3.523 10.432h-29.977c-4.774 0-9.402 1.983-12.696 5.44-3.322 3.487-5.023 8.049-4.79 12.847 1.854 38.141 13.731 75.248 34.348 107.309 19.286 29.992 45.762 54.968 76.759 72.462v52.232c0 9.649 7.851 17.5 17.5 17.5h179.596c9.649 0 17.5-7.851 17.5-17.5v-52.233c30.997-17.494 57.473-42.47 76.759-72.462 20.617-32.061 32.494-69.167 34.348-107.309.233-4.797-1.468-9.359-4.79-12.846-3.294-3.458-7.921-5.44-12.696-5.44h-23.965v-85.21c0-4.142-3.358-7.5-7.5-7.5s-7.5 3.358-7.5 7.5v85.209h-24.667v-145.209h24.667v25c0 4.142 3.358 7.5 7.5 7.5s7.5-3.358 7.5-7.5v-25h31.972c6.893 0 12.5-5.607 12.5-12.5v-17.833-15-17.834c0-6.892-5.607-12.5-12.5-12.5zm-71.639 4c0-6.801 5.533-12.333 12.333-12.333s12.333 5.533 12.333 12.333v26.333h-24.667v-26.333zm-39.666 0c0-6.801 5.533-12.333 12.333-12.333s12.333 5.533 12.333 12.333v26.333h-24.667v-26.333zm-39.667 0c0-6.801 5.533-12.333 12.333-12.333s12.333 5.533 12.333 12.333v26.333h-24.667v-26.333zm-39.667 0c0-6.801 5.533-12.333 12.333-12.333s12.333 5.533 12.333 12.333v26.333h-24.667v-26.333zm-244.861 11h229.861v15.333h-229.861zm19.534 97.089c-4.08-4.922-4.742-8.405-4.192-9.545.709-1.47 4.027-2.666 9.291-2.666 5.586 0 13.363 1.349 22.529 5.15 2.64 1.096 5.672.595 7.819-1.29 2.148-1.884 3.039-4.825 2.297-7.584-2.253-8.382-2.748-15.332-2.326-20.486h16.797c3.329 4.56 6.72 10.72 9.488 18.646 1.795 5.143 3.041 10.359 3.698 15.263-3.79 1.412-7.403 3.389-10.714 5.933l-.529.406c-3.548 2.726-6.565 5.948-8.997 9.54-11.375-11.503-23.775-15.959-33.115-10.759-1.942 1.081-3.591 2.506-4.965 4.215-2.762-2.215-5.171-4.519-7.081-6.823zm226.485 83.537c2.656-5.788 8.685-9.186 15.011-8.454 4.076.472 7.671 2.571 10.122 5.911 1.481 2.019 3.885 3.164 6.374 3.055 2.502-.109 4.784-1.46 6.083-3.6 2.973-4.896 8.556-7.638 14.216-6.979 7.235.837 12.804 6.96 12.954 14.244.043 2.068.938 4.026 2.473 5.413 1.535 1.385 3.573 2.074 5.636 1.908 1.126-.091 2.252-.074 3.347.052 4.484.519 8.498 2.753 11.302 6.291 1.74 2.196 2.882 4.731 3.376 7.411h-263.034c-4.515-4.521-7.165-10.494-7.497-16.993-.358-7.015 2.067-13.731 6.829-18.911l.46-.501c5.462-5.94 13.229-8.957 21.31-8.275 1.792.151 3.579-.348 5.035-1.404 2.993-2.173 6.645-3.138 10.282-2.716 5.032.583 9.348 3.68 11.543 8.286.955 2.003 2.748 3.48 4.896 4.035s4.433.128 6.237-1.162c2.978-2.13 6.6-3.074 10.198-2.656 6.169.714 11.234 5.275 12.604 11.35.667 2.955 3.044 5.218 6.028 5.739 2.982.519 5.987-.806 7.614-3.359 3.052-4.793 8.432-7.365 14.048-6.717 5.864.679 10.729 4.778 12.394 10.444.849 2.889 3.343 4.99 6.334 5.336 2.984.348 5.898-1.13 7.385-3.749 2.914-5.135 8.587-8.014 14.45-7.336 3.679.426 7.039 2.228 9.461 5.074 1.66 1.951 4.202 2.917 6.739 2.568 2.539-.354 4.722-1.976 5.79-4.305zm-1.158-19.779v-100.18h24.667v98.236c-2.174-.801-4.444-1.362-6.774-1.631-6.368-.738-12.586.605-17.893 3.575zm39.667-2.992v-97.188h24.667v97.861c-2.967-1.468-6.208-2.473-9.645-2.871-5.205-.601-10.37.21-15.022 2.198zm39.667 17.747v-114.935h24.667v134.094c-.983-1.967-2.171-3.849-3.568-5.613-5.126-6.469-12.397-10.628-20.542-11.773-.165-.6-.357-1.188-.557-1.773zm-94.334-45.105c-6.002-.792-12.036.274-17.326 2.972-3.729-6.445-9.832-11.381-17.276-13.581-6.933-2.049-14.12-1.505-20.424 1.31-3.61-7.168-10.062-12.751-18.074-15.119-4.53-1.338-9.266-1.562-13.837-.701-3.759-6.374-9.791-11.147-17.095-13.305-6.227-1.841-12.827-1.577-18.867.713-2.407-.469-4.823-.708-7.227-.748-.81-5.738-2.259-11.721-4.336-17.669-1.734-4.966-3.742-9.548-5.95-13.702h140.413v69.83zm-124.08-22.603c1.739.455 3.586.271 5.202-.521 3.32-1.628 7.083-1.955 10.595-.915 4.858 1.435 8.579 5.226 9.954 10.14.598 2.137 2.111 3.899 4.133 4.813s4.345.886 6.344-.077c3.297-1.588 7.027-1.896 10.502-.871 5.956 1.76 10.165 7.121 10.474 13.34.15 3.025 2.105 5.663 4.956 6.686 2.853 1.024 6.038.233 8.078-2.006 3.829-4.199 9.572-5.813 14.991-4.211 5.662 1.673 9.752 6.544 10.422 12.411.341 2.992 2.439 5.489 5.326 6.342 2.886.854 6.005-.103 7.918-2.428 3.683-4.479 9.613-6.351 15.188-4.832v17.4c-1.342-.352-2.711-.62-4.107-.781-7.714-.892-15.26 1.259-21.216 5.727-4.778-5.711-11.635-9.529-19.347-10.422-7.179-.832-14.168.936-19.898 4.788-4.785-6.445-12.096-10.84-20.396-11.8-4.692-.542-9.395.047-13.753 1.679-4.795-5.635-11.556-9.306-19.121-10.181-6.448-.747-12.907.645-18.466 3.933-2.428-.048-4.828.127-7.183.494-1.756-5.368-4.197-10.973-7.362-16.658-1.345-2.415-2.746-4.713-4.191-6.892 1.73-3.994 4.454-7.508 8.012-10.242l.537-.413c6.394-4.916 14.563-6.558 22.408-4.503zm-53.802 72.482c-5.422-.026-12.017-.854-19.616-3.017-9.634-2.743-18.457-7.131-24.205-12.039-4.862-4.151-6.112-7.469-5.765-8.686.636-2.234 6.579-4.83 16.392-4.83 4.395 0 9.567.521 15.384 1.828 2.789.627 5.689-.385 7.483-2.609 1.793-2.225 2.167-5.274.964-7.866-7.855-16.921-6.609-28.755-3.739-30.354 2.978-1.656 16.126 4.856 27.029 24.438 2.896 5.201 4.915 10.045 6.277 14.395-3.498 2.039-6.722 4.605-9.549 7.68l-.458.498c0 .001-.001.002-.002.003-5.379 5.846-8.855 12.94-10.195 20.559zm266.893 251.626h-28.372c-4.142 0-7.5 3.358-7.5 7.5s3.358 7.5 7.5 7.5h28.372v9.165c0 1.378-1.122 2.5-2.5 2.5h-179.596c-1.378 0-2.5-1.122-2.5-2.5v-9.165h120.224c4.142 0 7.5-3.358 7.5-7.5s-3.358-7.5-7.5-7.5h-120.224v-25h184.596zm108.622-211.126c.944 0 1.555.493 1.835.787.328.344.709.93.668 1.772-.755 15.533-3.295 30.881-7.52 45.732h-278.977c-4.142 0-7.5 3.358-7.5 7.5s3.358 7.5 7.5 7.5h274.047c-5.071 13.689-11.594 26.846-19.532 39.191-18.397 28.609-43.823 52.299-73.591 68.644h-195.699c-29.769-16.345-55.195-40.035-73.591-68.644-7.939-12.345-14.462-25.503-19.532-39.191h72.898c4.142 0 7.5-3.358 7.5-7.5s-3.358-7.5-7.5-7.5h-77.829c-4.225-14.851-6.765-30.199-7.52-45.732-.041-.842.341-1.429.668-1.772.28-.293.891-.787 1.835-.787zm5.506-175.209h-433v-15.333h237.362 158.667 36.971zm0-30.333h-29.472v-15.334h29.472z"/><circle cx="86.074" cy="284" r="7.5"/><circle cx="126.074" cy="284" r="7.5"/><circle cx="166.074" cy="284" r="7.5"/><circle cx="206.074" cy="284" r="7.5"/><circle cx="246.074" cy="284" r="7.5"/><circle cx="286.074" cy="284" r="7.5"/><circle cx="326.074" cy="284" r="7.5"/><circle cx="366.074" cy="284" r="7.5"/><circle cx="406.074" cy="284" r="7.5"/><circle cx="446.074" cy="284" r="7.5"/></g></g></svg>