<?xml version="1.0" encoding="iso-8859-1"?>
<!-- Generator: Adobe Illustrator 19.0.0, SVG Export Plug-In . SVG Version: 6.00 Build 0)  -->
<svg version="1.1" id="Capa_1" xmlns="http://www.w3.org/2000/svg" xmlns:xlink="http://www.w3.org/1999/xlink" x="0px" y="0px"
	 viewBox="0 0 512 512" style="enable-background:new 0 0 512 512;" xml:space="preserve">
<path style="fill:#FC5F53;" d="M504.751,233.492c0,97.927-111.299,177.311-248.593,177.311S7.566,331.418,7.566,233.492"/>
<g>
	<path style="fill:#E02F22;" d="M504.751,233.4h-0.004c0,0.021,0.003,0.043,0.003,0.064
		C504.749,233.443,504.751,233.421,504.751,233.4z"/>
	<path style="fill:#E02F22;" d="M457.106,278.457C430.741,350.111,343.035,404.219,236.4,410.201
		c6.518,0.366,13.107,0.534,19.757,0.534c137.218,0,248.468-79.212,248.59-177.173C504.699,250.345,487.019,265.86,457.106,278.457z
		"/>
</g>
<ellipse style="fill:#87898C;" cx="256.156" cy="233.497" rx="248.593" ry="76.379"/>
<path style="fill:#57565C;" d="M389.293,303.017c-10.84-25.259-58.549-42.016-133.136-42.016s-121.045,16.006-132.879,41.368
	L389.293,303.017z"/>
<g>
	<path style="fill:#FEE836;" d="M445.852,143.303l-64.459-10.743c-7.613-1.268-13.193-7.856-13.193-15.574l0,0
		c0-9.756,8.76-17.177,18.384-15.574l64.459,10.743c7.613,1.268,13.193,7.856,13.193,15.574l0,0
		C464.236,137.486,455.475,144.907,445.852,143.303z"/>
	<path style="fill:#FEE836;" d="M125.733,248.342l-64.46-10.743c-7.613-1.268-13.193-7.856-13.193-15.574l0,0
		c0-9.757,8.76-17.177,18.384-15.574l64.459,10.743c7.613,1.268,13.193,7.856,13.193,15.574l0,0
		C144.117,242.525,135.355,249.946,125.733,248.342z"/>
</g>
<path d="M455.233,179.833v-29.997c3.001-0.926,5.703-2.372,8.02-4.334c5.234-4.435,8.361-10.911,8.361-17.772
	c0-0.045,0.057-0.089,0.056-0.134c0.001-0.079,0.037-0.157,0.037-0.236c0-12.963-10.53-23.509-23.493-23.509
	c-0.4,0-0.79,0.011-1.185,0.03l-59.216-9.87c-6.77-1.126-13.648,0.769-18.882,5.204c-5.234,4.435-8.485,10.911-8.485,17.772
	c0,10.224,6.754,19.014,15.757,22.107v19.958c-36.013-6.164-77.515-9.444-120.295-9.444c-67.128,0-130.213,8.063-177.86,22.701
	C26.948,188.012,0,209.167,0,233.492c0,49.854,27.007,96.55,75.988,131.487c48.214,34.389,112.204,53.328,180.154,53.328
	s131.932-18.939,180.146-53.328C485.27,330.042,512,283.345,512,233.492C512,212.86,493.247,194.51,455.233,179.833z
	 M446.588,119.019l3.222,0.537c3.947,0.658,6.822,3.997,6.915,7.977c-0.094,4.608-3.864,8.33-8.494,8.33
	c-4.689,0-8.503-3.814-8.503-8.503C439.727,123.233,442.682,119.787,446.588,119.019z M378.632,110.665
	c1.525-1.291,3.372-1.97,5.312-1.97c0.464,0,0.934,0.039,1.407,0.117l42.378,7.063c-1.912,3.398-3.007,7.315-3.007,11.484
	c0,1.681,0.181,3.32,0.518,4.902l-42.613-7.103c-4.012-0.669-6.924-4.106-6.924-8.173
	C375.703,114.51,376.744,112.265,378.632,110.665z M391.209,141.886l49.018,8.169v24.361c-2.001-0.711-4.337-1.416-6.583-2.106
	c-13.054-4.01-26.429-7.524-42.435-10.518V141.886z M82.58,186.654c46.258-14.213,107.903-22.04,173.578-22.04
	s127.319,7.827,173.578,22.04c42.274,12.988,67.512,30.497,67.512,46.836s-25.238,33.849-67.512,46.837
	c-12.433,3.82-25.985,7.174-40.42,10.044c-5.143-7.912-17.042-17.156-43.316-24.622c-24.605-6.992-56.512-10.842-89.842-10.842
	s-65.486,3.85-90.093,10.842c-13.864,3.939-23.95,8.374-30.953,12.847v-23.723c3.001-0.926,5.703-2.372,8.02-4.334
	c5.234-4.435,8.361-10.911,8.361-17.772c0-0.045,0.057-0.089,0.057-0.134c0.001-0.079,0.037-0.157,0.037-0.236
	c0-12.963-10.53-23.509-23.493-23.509c-0.4,0-0.79,0.01-1.185,0.03l-59.216-9.87c-6.77-1.124-13.648,0.769-18.882,5.204
	c-5.234,4.435-8.485,10.911-8.485,17.772c0,10.224,6.754,19.014,15.757,22.107v26.738c-26.01-11.404-41.265-24.741-41.265-37.38
	C14.819,217.152,40.306,199.643,82.58,186.654z M129.69,224.595c3.946,0.658,6.822,3.997,6.915,7.977
	c-0.094,4.608-3.864,8.33-8.494,8.33c-4.689,0-8.503-3.814-8.503-8.503c0-4.127,2.956-7.573,6.861-8.341L129.69,224.595z
	 M105.119,237.301l-42.613-7.103c-4.012-0.669-6.924-4.106-6.924-8.173c0-2.476,1.04-4.722,2.93-6.321
	c1.525-1.291,3.372-1.97,5.312-1.97c0.464,0,0.934,0.039,1.407,0.117l42.378,7.063c-1.912,3.399-3.007,7.315-3.007,11.484
	C104.602,234.08,104.782,235.719,105.119,237.301z M71.09,246.926l49.018,8.169v34.799c-13.005-2.762-26.283-5.956-38.027-9.565
	c-3.805-1.169-6.99-2.377-10.991-3.614V246.926z M371.931,293.526c-35.158,5.777-74.676,8.842-115.772,8.842
	c-41.112,0-80.644-3.068-115.811-8.848c5.51-4.312,15.115-9.086,30.07-13.336c23.309-6.622,53.759-10.271,85.741-10.271
	C315.943,269.913,357.13,282.163,371.931,293.526z M256.159,403.3c-116.537,0-214.022-58.542-236.302-136.065
	c13.141,10.324,32.7,19.566,58.317,27.437c47.648,14.639,110.857,22.701,177.985,22.701s130.338-8.063,177.985-22.701
	c25.617-7.871,45.176-17.113,58.317-27.437C470.179,344.757,372.696,403.3,256.159,403.3z"/>
<g>
	<rect x="448.227" y="238.899" style="fill:#FFFFFF;" width="16.006" height="15.006"/>
	<rect x="400.209" y="206.887" style="fill:#FFFFFF;" width="16.006" height="15.006"/>
</g>
<g>
</g>
<g>
</g>
<g>
</g>
<g>
</g>
<g>
</g>
<g>
</g>
<g>
</g>
<g>
</g>
<g>
</g>
<g>
</g>
<g>
</g>
<g>
</g>
<g>
</g>
<g>
</g>
<g>
</g>
</svg>
