<svg id="Capa_1" enable-background="new 0 0 512 512" height="512" viewBox="0 0 512 512" width="512" xmlns="http://www.w3.org/2000/svg"><g><g><g><path d="m338.666 485.403c-13.299-26.654-55.344-46.127-105.162-46.127-49.819 0-91.864 19.473-105.163 46.127z" fill="#595751"/><g><g><path d="m154.055 410.344h-39.612c-6.048 0-11.729 2.899-15.279 7.795l-49.23 67.911h42.985l29.653-40.905h31.483c5.492 0 9.943-4.452 9.943-9.943v-14.915c0-5.491-4.452-9.943-9.943-9.943z" fill="#b5b1a4"/></g><g><path d="m118.723 450.46-25.803 35.588h-42.985l12.936-17.839c20.682-.408 39.873-6.891 55.852-17.749z" fill="#8f8b81"/></g><g><path d="m316.664 410.344h39.612c6.048 0 11.729 2.899 15.279 7.795l49.231 67.912h-42.986l-29.653-40.905h-31.483c-5.492 0-9.943-4.452-9.943-9.943v-14.915c0-5.492 4.451-9.944 9.943-9.944z" fill="#b5b1a4"/></g><g><path d="m420.784 486.048h-42.985l-1.382-1.899c3.152-8.691 4.862-18.057 4.862-27.832 0-13.255-3.152-25.773-8.75-36.84" fill="#8f8b81"/></g></g><path d="m430.77 511.997h-394.533c-5.492 0-9.943-4.452-9.943-9.943v-11.752c0-5.492 4.452-9.943 9.943-9.943h394.533c5.492 0 9.943 4.452 9.943 9.943v11.752c0 5.491-4.452 9.943-9.943 9.943z" fill="#706c64"/><path d="m245.823 480.358h-151.427c-8.737 0-15.819 7.083-15.819 15.819 0 8.737 7.083 15.819 15.819 15.819h151.427c8.737 0 15.819-7.083 15.819-15.819 0-8.736-7.083-15.819-15.819-15.819z" fill="#8f8b81"/><path d="m172.308 480.358h-26.74c-8.737 0-15.819 7.083-15.819 15.819 0 8.737 7.083 15.819 15.819 15.819h26.74c8.737 0 15.819-7.083 15.819-15.819 0-8.736-7.082-15.819-15.819-15.819z" fill="#b5b1a4"/><path d="m372.529 419.476 48.255 66.572" fill="#8f8b81"/><g><g><path d="m249.899 432.512c0 10.239-6.153 19.044-14.967 22.916-8.81-3.867-14.967-12.673-14.967-22.916s6.157-19.048 14.967-22.916c8.814 3.867 14.967 12.673 14.967 22.916z" fill="#ffaf40"/><path d="m249.894 432.514c0 10.232-6.15 19.044-14.962 22.913-1.566-.682-3.042-1.532-4.417-2.505 7.548-6.765 12.301-16.606 12.301-27.543 0-4.272-.727-8.387-2.069-12.2 5.58 4.574 9.147 11.541 9.147 19.335z" fill="#ff993a"/><path d="m244.743 440.405c0 6.712-4.033 12.484-9.812 15.022-5.775-2.535-9.812-8.308-9.812-15.022s4.036-12.487 9.812-15.022c5.779 2.535 9.812 8.308 9.812 15.022z" fill="#5cceff"/></g><path d="m244.739 440.409c0 6.71-4.026 12.48-9.807 15.018-2.36-1.04-4.428-2.617-6.039-4.585 5.726-4.07 9.449-10.769 9.449-18.328 0-1.935-.246-3.813-.705-5.614 4.295 2.942 7.102 7.896 7.102 13.509z" fill="#27b2ff"/></g><g><g><g><path d="m293.636 441.838c-3.655 9.564-12.545 15.593-22.161 16.064-6.849-6.757-9.458-17.18-5.801-26.749 3.656-9.568 12.551-15.596 22.161-16.064 6.853 6.76 9.457 17.181 5.801 26.749z" fill="#ffaf40"/><path d="m293.631 441.839c-3.652 9.558-12.543 15.594-22.155 16.063-1.219-1.196-2.294-2.517-3.232-3.917 9.466-3.625 17.418-11.121 21.322-21.338 1.525-3.99 2.315-8.094 2.422-12.135 3.579 6.265 4.425 14.046 1.643 21.327z" fill="#ff993a"/><path d="m286.003 447.372c-2.396 6.27-8.224 10.222-14.527 10.531-4.49-4.43-6.2-11.263-3.803-17.535s8.228-10.224 14.527-10.531c4.492 4.43 6.199 11.262 3.803 17.535z" fill="#5cceff"/></g><path d="m285.997 447.374c-2.395 6.268-8.215 10.221-14.522 10.528-1.833-1.814-3.203-4.025-4.004-6.438 6.801-1.759 12.671-6.687 15.369-13.748.691-1.807 1.131-3.65 1.346-5.495 2.961 4.279 3.815 9.909 1.811 15.153z" fill="#27b2ff"/></g><g><g><path d="m205.044 431.154c3.655 9.564 1.05 19.986-5.801 26.749-9.61-.468-18.505-6.495-22.161-16.064-3.656-9.568-1.048-19.991 5.801-26.749 9.614.466 18.505 6.496 22.161 16.064z" fill="#ffaf40"/><path d="m205.04 431.158c3.652 9.558 1.052 19.985-5.798 26.744-1.706-.078-3.388-.345-5.02-.763 4.636-9.014 5.563-19.903 1.659-30.119-1.525-3.99-3.673-7.575-6.287-10.658 6.845 2.281 12.664 7.515 15.446 14.796z" fill="#ff993a"/><path d="m203.046 440.368c2.396 6.27.689 13.102-3.803 17.535-6.3-.307-12.131-4.258-14.527-10.531-2.397-6.272-.687-13.105 3.803-17.535 6.302.306 12.13 4.258 14.527 10.531z" fill="#5cceff"/></g><path d="m203.043 440.373c2.395 6.268.694 13.095-3.8 17.53-2.575-.129-5.071-.864-7.277-2.127 3.895-5.846 4.983-13.432 2.285-20.494-.691-1.807-1.591-3.474-2.662-4.992 5.06 1.213 9.45 4.839 11.454 10.083z" fill="#27b2ff"/></g></g><g><g><g><path d="m326.269 467.992c-7.701 6.748-18.378 7.924-27.099 3.846-2.897-9.175-.333-19.609 7.371-26.359 7.704-6.751 18.384-7.923 27.099-3.846 2.901 9.177.333 19.608-7.371 26.359z" fill="#ffaf40"/><path d="m326.264 467.99c-7.695 6.743-18.376 7.925-27.094 3.848-.519-1.627-.852-3.297-1.027-4.973 10.063 1.218 20.596-1.693 28.822-8.901 3.213-2.815 5.829-6.074 7.812-9.596.238 7.21-2.651 14.485-8.513 19.622z" fill="#ff993a"/><path d="m316.935 469.316c-5.048 4.424-12.048 5.194-17.765 2.521-1.899-6.014-.218-12.854 4.832-17.28s12.052-5.194 17.765-2.521c1.901 6.017.218 12.855-4.832 17.28z" fill="#5cceff"/></g><path d="m316.929 469.316c-5.046 4.422-12.039 5.197-17.759 2.522-.773-2.46-.951-5.055-.532-7.563 6.835 1.624 14.327.01 20.012-4.972 1.455-1.275 2.706-2.698 3.758-4.23.619 5.167-1.257 10.543-5.479 14.243z" fill="#27b2ff"/></g><g><g><path d="m164.176 445.479c7.7 6.748 10.268 17.179 7.371 26.359-8.715 4.077-19.395 2.904-27.099-3.846-7.704-6.751-10.268-17.185-7.371-26.359 8.718-4.081 19.396-2.905 27.099 3.846z" fill="#ffaf40"/><path d="m164.175 445.484c7.695 6.743 10.269 17.177 7.372 26.354-1.545.728-3.157 1.278-4.795 1.671-.114-10.136-4.382-20.196-12.608-27.403-3.213-2.815-6.787-4.981-10.539-6.485 7.117-1.182 14.708.726 20.57 5.863z" fill="#ff993a"/><path d="m166.715 454.558c5.048 4.424 6.731 11.261 4.832 17.28-5.713 2.673-12.714 1.904-17.765-2.521-5.05-4.425-6.731-11.265-4.832-17.28 5.715-2.675 12.715-1.904 17.765 2.521z" fill="#5cceff"/></g><path d="m166.715 454.564c5.046 4.422 6.733 11.253 4.832 17.274-2.337 1.089-4.887 1.606-7.428 1.52.712-6.989-1.871-14.204-7.557-19.186-1.455-1.275-3.03-2.328-4.686-3.17 5.042-1.291 10.617-.138 14.839 3.562z" fill="#27b2ff"/></g></g><path d="m440.711 490.303v11.753c0 5.489-4.455 9.943-9.943 9.943h-86.13c21.438-4.166 40.271-15.601 53.844-31.64h32.286c5.488.001 9.943 4.456 9.943 9.944z" fill="#595751"/></g></g><g><path d="m240.204 242.412s-67.021 18.051-97.856-25.169 11.426-114.961-12.6-137.26c-35.394-32.85-229.24 163.241-41.938 268.023z" fill="#ffaf40"/><path d="m40.663 200.497c6.407-23.126 18.197-44.89 32.031-63.295 3.968-5.279 3.12-12.742-1.867-17.072l-.187-.162c-5.291-4.594-13.338-4.034-17.876 1.306-16.822 19.794-31.756 44.629-39.568 71.384-2.659 9.107 4.251 18.203 13.738 18.203 6.379 0 12.026-4.217 13.729-10.364z" fill="#ffc751"/><path d="m240.207 242.412-152.394 105.594c-15.762-8.818-28.835-18.286-39.518-28.217 36.891-37.179 59.678-88.379 59.678-144.895 0-30.947-6.83-60.286-19.069-86.618 17.472-11.631 33.028-15.556 40.847-8.293 24.024 22.303-18.234 94.045 12.599 137.261 30.834 43.217 97.857 25.168 97.857 25.168z" fill="#ff993a"/><path d="m240.207 242.412-129.185 89.512c22.757-30.071 36.262-67.549 36.262-108.169v-.433c32.493 35.367 92.923 19.09 92.923 19.09z" fill="#f97c15"/><g><g><path d="m397.687 232.69-38.344-21.029 48.527-88.484 27.988 15.35c5.719 3.137 7.813 10.316 4.676 16.035z" fill="#b5b1a4"/><path d="m440.536 154.565-42.845 78.124-16.415-8.995c24.834-15.599 37.402-46.297 28.786-75.842-1.671-5.728-4.035-11.064-6.982-15.944l4.791-8.736 27.989 15.357c5.719 3.13 7.814 10.314 4.676 16.036z" fill="#8f8b81"/><path d="m469.226 11.337c6.417-10.92 20.569-14.669 31.615-8.069 10.122 6.048 14.032 19.04 8.916 29.663-1.775 3.685-4.381 6.667-7.474 8.845-12.684 8.931-39.596 51.105-45.859 65.297l-11.611 26.314c-2.758 6.251-10.277 8.8-16.268 5.514l-22.523-12.352 63.19-115.22z" fill="#595751"/><path d="m425.763 119.765c6.803 3.731 15.341 1.24 19.072-5.562l30.124-54.928c3.731-6.803 1.24-15.341-5.562-19.072-6.803-3.731-15.341-1.24-19.072 5.562l-30.124 54.928c-3.73 6.802-1.24 15.341 5.562 19.072z" fill="#706c64"/></g><path d="m6.578 301.531c-6.95 2.027-8.881 10.93-3.424 15.687 65.77 57.333 159.494 80.857 250.717 54.253s157.61-96.821 182.249-180.521c2.044-6.945-4.369-13.414-11.319-11.387z" fill="#e8e4d8"/><path d="m185.29 249.413-145.066 42.306c-7.467 2.178-11.755 9.996-9.577 17.464 2.178 7.467 9.996 11.755 17.464 9.577l145.065-42.306c7.467-2.178 11.755-9.996 9.577-17.464-2.178-7.467-9.996-11.755-17.463-9.577z" fill="#f1eee0"/><path d="m159.856 256.83-42.901 12.512c-7.467 2.178-11.755 9.996-9.577 17.464 2.178 7.467 9.996 11.755 17.464 9.577l42.901-12.512c7.467-2.178 11.755-9.996 9.577-17.464-2.178-7.467-9.997-11.755-17.464-9.577z" fill="#f9f8f2"/><path d="m436.117 190.948c-24.637 83.703-91.024 153.92-182.246 180.523-15.229 4.441-30.531 7.486-45.755 9.203 6.734-1.126 13.472-2.663 20.192-4.623 79.046-23.053 129.366-97.055 125.648-175.83l70.845-20.661c6.947-2.025 13.364 4.442 11.316 11.388z" fill="#d8d4c9"/><g fill="#b5b1a4"><circle cx="383.618" cy="214.127" r="6.77"/><circle cx="304.746" cy="237.129" r="6.77"/><circle cx="225.874" cy="260.131" r="6.77"/><circle cx="147.002" cy="283.132" r="6.77"/><circle cx="68.13" cy="306.134" r="6.77"/></g></g><g fill="#ffc751"><ellipse cx="131.708" cy="183.645" rx="16.246" ry="9.765" transform="matrix(.356 -.935 .935 .356 -86.793 241.352)"/><ellipse cx="183.631" cy="199.242" rx="16.246" ry="9.765" transform="matrix(.795 -.607 .607 .795 -83.245 152.39)"/></g><g><ellipse cx="52.836" cy="248.124" fill="#ff993a" rx="9.765" ry="16.246" transform="matrix(.668 -.745 .745 .668 -167.168 121.809)"/><ellipse cx="96.598" cy="242.412" fill="#ffc751" rx="9.765" ry="16.246" transform="matrix(.973 -.23 .23 .973 -53.094 28.666)"/></g><g><ellipse cx="75.662" cy="71.748" fill="#ffc751" rx="12.345" ry="7.42" transform="matrix(.315 -.949 .949 .315 -16.246 120.997)"/></g><g><ellipse cx="96.598" cy="122.679" fill="#ffc751" rx="12.345" ry="7.42" transform="matrix(.617 -.787 .787 .617 -59.546 123.111)"/></g><g><ellipse cx="174.091" cy="79.983" fill="#ffc751" rx="7.42" ry="12.345" transform="matrix(.084 -.997 .997 .084 79.803 246.761)"/></g><g><ellipse cx="144.251" cy="101.446" fill="#ffc751" rx="12.345" ry="7.42" transform="matrix(1 -.031 .031 1 -3.065 4.505)"/></g><g><ellipse cx="131.708" cy="60.103" fill="#ffc751" rx="12.345" ry="7.42" transform="matrix(.951 -.309 .309 .951 -12.132 43.69)"/></g><g><ellipse cx="30.63" cy="157.048" fill="#ff993a" rx="12.345" ry="7.42" transform="matrix(.103 -.995 .995 .103 -128.731 171.417)"/></g></g></g></svg>